<svg width="40" height="40" viewBox="0 0 40 40" fill="none" xmlns="http://www.w3.org/2000/svg">
<path d="M37.9998 21.58C37.6852 24.9844 36.4075 28.2288 34.3163 30.9336C32.2251 33.6383 29.4068 35.6916 26.1912 36.8531C22.9756 38.0146 19.4958 38.2362 16.1588 37.4922C12.8218 36.7481 9.76579 35.0691 7.34825 32.6516C4.93072 30.234 3.25168 27.178 2.50762 23.841C1.76355 20.504 1.98523 17.0242 3.14672 13.8086C4.30821 10.593 6.36146 7.77473 9.06623 5.68351C11.771 3.59228 15.0154 2.31461 18.4198 2C16.4266 4.69653 15.4675 8.0189 15.7169 11.3628C15.9662 14.7068 17.4075 17.8501 19.7786 20.2212C22.1497 22.5923 25.293 24.0336 28.637 24.2829C31.9809 24.5323 35.3033 23.5732 37.9998 21.58Z" stroke="white" stroke-width="4" stroke-linecap="round" stroke-linejoin="round"/>
</svg>
