<svg width="28" height="26" viewBox="0 0 28 26" fill="none" xmlns="http://www.w3.org/2000/svg">
<path d="M26.8658 23.4995C24.9621 20.2082 22.0283 17.8482 18.6046 16.7295C20.2981 15.7213 21.6139 14.1851 22.3498 12.3567C23.0858 10.5284 23.2012 8.509 22.6784 6.60869C22.1556 4.70838 21.0234 3.03224 19.4558 1.83765C17.8882 0.643064 15.9717 -0.00390625 14.0008 -0.00390625C12.0299 -0.00390625 10.1135 0.643064 8.54586 1.83765C6.97823 3.03224 5.84607 4.70838 5.32325 6.60869C4.80043 8.509 4.91586 10.5284 5.65181 12.3567C6.38776 14.1851 7.70354 15.7213 9.39708 16.7295C5.97333 17.847 3.03958 20.207 1.13583 23.4995C1.06601 23.6133 1.01971 23.74 0.999638 23.872C0.97957 24.004 0.986147 24.1387 1.01898 24.2682C1.05182 24.3976 1.11024 24.5192 1.19082 24.6257C1.27139 24.7322 1.37247 24.8214 1.48811 24.8882C1.60374 24.955 1.73158 24.998 1.86409 25.0146C1.99659 25.0311 2.13107 25.021 2.2596 24.9848C2.38813 24.9486 2.5081 24.8869 2.61244 24.8036C2.71677 24.7202 2.80335 24.6168 2.86708 24.4995C5.22208 20.4295 9.38458 17.9995 14.0008 17.9995C18.6171 17.9995 22.7796 20.4295 25.1346 24.4995C25.1983 24.6168 25.2849 24.7202 25.3892 24.8036C25.4936 24.8869 25.6135 24.9486 25.7421 24.9848C25.8706 25.021 26.0051 25.0311 26.1376 25.0146C26.2701 24.998 26.3979 24.955 26.5135 24.8882C26.6292 24.8214 26.7303 24.7322 26.8108 24.6257C26.8914 24.5192 26.9498 24.3976 26.9827 24.2682C27.0155 24.1387 27.0221 24.004 27.002 23.872C26.9819 23.74 26.9356 23.6133 26.8658 23.4995ZM7.00083 8.99949C7.00083 7.61503 7.41137 6.26165 8.18054 5.1105C8.94971 3.95936 10.043 3.06215 11.322 2.53234C12.6011 2.00252 14.0086 1.8639 15.3665 2.134C16.7243 2.40409 17.9716 3.07078 18.9506 4.04975C19.9295 5.02871 20.5962 6.276 20.8663 7.63386C21.1364 8.99173 20.9978 10.3992 20.468 11.6783C19.9382 12.9574 19.041 14.0506 17.8898 14.8198C16.7387 15.589 15.3853 15.9995 14.0008 15.9995C12.1449 15.9975 10.3656 15.2594 9.05327 13.9471C7.74095 12.6347 7.00281 10.8554 7.00083 8.99949Z" fill="black"/>
</svg>
