<svg width="30" height="34" viewBox="0 0 30 34" fill="none" xmlns="http://www.w3.org/2000/svg">
<path d="M30 21.3259V31.0232C30 31.7581 29.7366 32.4628 29.2678 32.9824C28.7989 33.502 28.163 33.7939 27.5 33.7939H2.5C1.83696 33.7939 1.20107 33.502 0.732233 32.9824C0.263392 32.4628 0 31.7581 0 31.0232V21.3259C0 20.9585 0.131696 20.6061 0.366117 20.3463C0.600537 20.0865 0.918479 19.9405 1.25 19.9405C1.58152 19.9405 1.89946 20.0865 2.13388 20.3463C2.3683 20.6061 2.5 20.9585 2.5 21.3259V31.0232H27.5V21.3259C27.5 20.9585 27.6317 20.6061 27.8661 20.3463C28.1005 20.0865 28.4185 19.9405 28.75 19.9405C29.0815 19.9405 29.3995 20.0865 29.6339 20.3463C29.8683 20.6061 30 20.9585 30 21.3259ZM14.1156 22.306C14.2317 22.4348 14.3696 22.537 14.5213 22.6067C14.6731 22.6764 14.8357 22.7123 15 22.7123C15.1643 22.7123 15.3269 22.6764 15.4787 22.6067C15.6304 22.537 15.7683 22.4348 15.8844 22.306L22.1344 15.3793C22.2505 15.2506 22.3426 15.0978 22.4055 14.9296C22.4683 14.7614 22.5007 14.5812 22.5007 14.3992C22.5007 14.2171 22.4683 14.0369 22.4055 13.8687C22.3426 13.7006 22.2505 13.5478 22.1344 13.419C22.0182 13.2903 21.8804 13.1882 21.7286 13.1186C21.5769 13.0489 21.4142 13.0131 21.25 13.0131C21.0858 13.0131 20.9231 13.0489 20.7714 13.1186C20.6196 13.1882 20.4818 13.2903 20.3656 13.419L16.25 17.982V1.93112C16.25 1.5637 16.1183 1.21133 15.8839 0.951533C15.6495 0.691732 15.3315 0.545776 15 0.545776C14.6685 0.545776 14.3505 0.691732 14.1161 0.951533C13.8817 1.21133 13.75 1.5637 13.75 1.93112V17.982L9.63438 13.419C9.39982 13.1591 9.0817 13.0131 8.75 13.0131C8.4183 13.0131 8.10018 13.1591 7.86562 13.419C7.63107 13.679 7.49931 14.0316 7.49931 14.3992C7.49931 14.7668 7.63107 15.1194 7.86562 15.3793L14.1156 22.306Z" fill="white"/>
</svg>
