<svg width="24" height="24" viewBox="0 0 24 24" fill="none" xmlns="http://www.w3.org/2000/svg">
<mask id="path-1-inside-1_2508_13821" fill="white">
<path d="M21.5625 9C21.5626 8.94774 21.5557 8.89571 21.5419 8.84531L20.1975 4.13906C20.1182 3.86576 19.9527 3.62543 19.7256 3.45393C19.4985 3.28244 19.2221 3.18898 18.9375 3.1875H5.0625C4.7781 3.18918 4.50186 3.28273 4.27496 3.45421C4.04807 3.62569 3.88267 3.86592 3.80344 4.13906L2.45906 8.84531C2.44494 8.89567 2.43768 8.9477 2.4375 9V10.5C2.43726 11.069 2.57332 11.6298 2.83429 12.1354C3.09526 12.6411 3.47355 13.0768 3.9375 13.4062V19.5C3.9375 19.8481 4.07578 20.1819 4.32192 20.4281C4.56806 20.6742 4.9019 20.8125 5.25 20.8125H18.75C19.0981 20.8125 19.4319 20.6742 19.6781 20.4281C19.9242 20.1819 20.0625 19.8481 20.0625 19.5V13.4062C20.5264 13.0768 20.9047 12.6411 21.1657 12.1354C21.4267 11.6298 21.5627 11.069 21.5625 10.5V9ZM4.88531 4.44844C4.89637 4.40977 4.91956 4.37569 4.95146 4.35121C4.98337 4.32673 5.02229 4.31316 5.0625 4.3125H18.9375C18.9782 4.31256 19.0178 4.32585 19.0502 4.35037C19.0827 4.3749 19.1063 4.40932 19.1175 4.44844L20.2547 8.4375H3.75L4.88531 4.44844ZM9.5625 9.5625H14.4375V10.5C14.4375 11.1465 14.1807 11.7665 13.7236 12.2236C13.2665 12.6807 12.6465 12.9375 12 12.9375C11.3535 12.9375 10.7335 12.6807 10.2764 12.2236C9.81931 11.7665 9.5625 11.1465 9.5625 10.5V9.5625ZM3.5625 9.5625H8.4375V10.5C8.4375 11.1465 8.18069 11.7665 7.72357 12.2236C7.26645 12.6807 6.64647 12.9375 6 12.9375C5.35354 12.9375 4.73355 12.6807 4.27643 12.2236C3.81931 11.7665 3.5625 11.1465 3.5625 10.5V9.5625ZM18.9375 19.5C18.9375 19.5497 18.9177 19.5974 18.8826 19.6326C18.8474 19.6677 18.7997 19.6875 18.75 19.6875H5.25C5.20027 19.6875 5.15258 19.6677 5.11742 19.6326C5.08225 19.5974 5.0625 19.5497 5.0625 19.5V13.9369C5.7951 14.1362 6.57222 14.0963 7.28052 13.8229C7.98883 13.5495 8.59127 13.057 9 12.4172C9.32148 12.9215 9.76489 13.3365 10.2892 13.6241C10.8136 13.9117 11.402 14.0624 12 14.0624C12.598 14.0624 13.1864 13.9117 13.7108 13.6241C14.2351 13.3365 14.6785 12.9215 15 12.4172C15.4087 13.057 16.0112 13.5495 16.7195 13.8229C17.4278 14.0963 18.2049 14.1362 18.9375 13.9369V19.5ZM18 12.9375C17.3535 12.9375 16.7335 12.6807 16.2764 12.2236C15.8193 11.7665 15.5625 11.1465 15.5625 10.5V9.5625H20.4375V10.5C20.4375 11.1465 20.1807 11.7665 19.7236 12.2236C19.2665 12.6807 18.6465 12.9375 18 12.9375Z"/>
</mask>
<path d="M21.5625 9C21.5626 8.94774 21.5557 8.89571 21.5419 8.84531L20.1975 4.13906C20.1182 3.86576 19.9527 3.62543 19.7256 3.45393C19.4985 3.28244 19.2221 3.18898 18.9375 3.1875H5.0625C4.7781 3.18918 4.50186 3.28273 4.27496 3.45421C4.04807 3.62569 3.88267 3.86592 3.80344 4.13906L2.45906 8.84531C2.44494 8.89567 2.43768 8.9477 2.4375 9V10.5C2.43726 11.069 2.57332 11.6298 2.83429 12.1354C3.09526 12.6411 3.47355 13.0768 3.9375 13.4062V19.5C3.9375 19.8481 4.07578 20.1819 4.32192 20.4281C4.56806 20.6742 4.9019 20.8125 5.25 20.8125H18.75C19.0981 20.8125 19.4319 20.6742 19.6781 20.4281C19.9242 20.1819 20.0625 19.8481 20.0625 19.5V13.4062C20.5264 13.0768 20.9047 12.6411 21.1657 12.1354C21.4267 11.6298 21.5627 11.069 21.5625 10.5V9ZM4.88531 4.44844C4.89637 4.40977 4.91956 4.37569 4.95146 4.35121C4.98337 4.32673 5.02229 4.31316 5.0625 4.3125H18.9375C18.9782 4.31256 19.0178 4.32585 19.0502 4.35037C19.0827 4.3749 19.1063 4.40932 19.1175 4.44844L20.2547 8.4375H3.75L4.88531 4.44844ZM9.5625 9.5625H14.4375V10.5C14.4375 11.1465 14.1807 11.7665 13.7236 12.2236C13.2665 12.6807 12.6465 12.9375 12 12.9375C11.3535 12.9375 10.7335 12.6807 10.2764 12.2236C9.81931 11.7665 9.5625 11.1465 9.5625 10.5V9.5625ZM3.5625 9.5625H8.4375V10.5C8.4375 11.1465 8.18069 11.7665 7.72357 12.2236C7.26645 12.6807 6.64647 12.9375 6 12.9375C5.35354 12.9375 4.73355 12.6807 4.27643 12.2236C3.81931 11.7665 3.5625 11.1465 3.5625 10.5V9.5625ZM18.9375 19.5C18.9375 19.5497 18.9177 19.5974 18.8826 19.6326C18.8474 19.6677 18.7997 19.6875 18.75 19.6875H5.25C5.20027 19.6875 5.15258 19.6677 5.11742 19.6326C5.08225 19.5974 5.0625 19.5497 5.0625 19.5V13.9369C5.7951 14.1362 6.57222 14.0963 7.28052 13.8229C7.98883 13.5495 8.59127 13.057 9 12.4172C9.32148 12.9215 9.76489 13.3365 10.2892 13.6241C10.8136 13.9117 11.402 14.0624 12 14.0624C12.598 14.0624 13.1864 13.9117 13.7108 13.6241C14.2351 13.3365 14.6785 12.9215 15 12.4172C15.4087 13.057 16.0112 13.5495 16.7195 13.8229C17.4278 14.0963 18.2049 14.1362 18.9375 13.9369V19.5ZM18 12.9375C17.3535 12.9375 16.7335 12.6807 16.2764 12.2236C15.8193 11.7665 15.5625 11.1465 15.5625 10.5V9.5625H20.4375V10.5C20.4375 11.1465 20.1807 11.7665 19.7236 12.2236C19.2665 12.6807 18.6465 12.9375 18 12.9375Z" fill="black"/>
<path d="M21.5625 9L19.5625 8.99537V9H21.5625ZM21.5419 8.84531L23.4708 8.31683L23.4679 8.30638L23.465 8.29597L21.5419 8.84531ZM20.1975 4.13906L22.1206 3.58972L22.1183 3.58188L20.1975 4.13906ZM18.9375 3.1875L18.9479 1.1875H18.9375V3.1875ZM5.0625 3.1875L5.0625 1.18747L5.05071 1.18753L5.0625 3.1875ZM3.80344 4.13906L1.8826 3.58188L1.88036 3.58972L3.80344 4.13906ZM2.45906 8.84531L0.535964 8.29596L0.533389 8.30515L2.45906 8.84531ZM2.4375 9L0.4375 8.99295V9H2.4375ZM2.4375 10.5L4.4375 10.5008V10.5H2.4375ZM3.9375 13.4062H5.9375V12.3735L5.09539 11.7755L3.9375 13.4062ZM3.9375 19.5L1.9375 19.5L3.9375 19.5ZM20.0625 13.4062L18.9046 11.7755L18.0625 12.3735V13.4062H20.0625ZM21.5625 10.5L19.5625 10.5L19.5625 10.5008L21.5625 10.5ZM4.88531 4.44844L2.96235 3.89871L2.9617 3.90097L4.88531 4.44844ZM5.0625 4.3125V2.3125H5.04602L5.02953 2.31277L5.0625 4.3125ZM18.9375 4.3125L18.9404 2.3125H18.9375V4.3125ZM19.1175 4.44844L21.0409 3.90013L21.0404 3.89844L19.1175 4.44844ZM20.2547 8.4375V10.4375H22.9045L22.1781 7.88919L20.2547 8.4375ZM3.75 8.4375L1.82639 7.89003L1.10136 10.4375H3.75V8.4375ZM9.5625 9.5625V7.5625H7.5625V9.5625H9.5625ZM14.4375 9.5625H16.4375V7.5625H14.4375V9.5625ZM14.4375 10.5H16.4375H14.4375ZM9.5625 10.5L7.5625 10.5L9.5625 10.5ZM3.5625 9.5625V7.5625H1.5625V9.5625H3.5625ZM8.4375 9.5625H10.4375V7.5625H8.4375V9.5625ZM8.4375 10.5H10.4375H8.4375ZM5.0625 13.9369L5.58757 12.007L3.0625 11.32V13.9369H5.0625ZM9 12.4172L10.6864 11.342L9.00169 8.69944L7.31455 11.3405L9 12.4172ZM15 12.4172L16.6855 11.3405L14.9983 8.69944L13.3136 11.342L15 12.4172ZM18.9375 13.9369H20.9375V11.32L18.4124 12.007L18.9375 13.9369ZM15.5625 9.5625V7.5625H13.5625V9.5625H15.5625ZM20.4375 9.5625H22.4375V7.5625H20.4375V9.5625ZM20.4375 10.5H22.4375H20.4375ZM23.5625 9.00463C23.563 8.77228 23.5322 8.54092 23.4708 8.31683L19.613 9.3738C19.5792 9.2505 19.5622 9.12321 19.5625 8.99537L23.5625 9.00463ZM23.465 8.29597L22.1206 3.58972L18.2744 4.6884L19.6188 9.39465L23.465 8.29597ZM22.1183 3.58188C21.9188 2.89419 21.5023 2.28945 20.9309 1.85793L18.5203 5.04993C18.4031 4.9614 18.3176 4.83734 18.2767 4.69625L22.1183 3.58188ZM20.9309 1.85793C20.3595 1.42641 19.6639 1.19124 18.9479 1.18753L18.9271 5.18747C18.7802 5.18671 18.6375 5.13846 18.5203 5.04993L20.9309 1.85793ZM18.9375 1.1875H5.0625V5.1875H18.9375V1.1875ZM5.05071 1.18753C4.33509 1.19175 3.64 1.42716 3.06908 1.85864L5.48085 5.04978C5.36372 5.1383 5.22111 5.1866 5.07429 5.18747L5.05071 1.18753ZM3.06908 1.85864C2.49816 2.29013 2.08199 2.89458 1.88262 3.58188L5.72426 4.69624C5.68336 4.83725 5.59797 4.96126 5.48085 5.04978L3.06908 1.85864ZM1.88036 3.58972L0.535986 8.29597L4.38214 9.39465L5.72651 4.6884L1.88036 3.58972ZM0.533389 8.30515C0.470582 8.52905 0.438332 8.76041 0.437513 8.99295L4.43749 9.00705C4.43704 9.13499 4.41929 9.26229 4.38474 9.38548L0.533389 8.30515ZM0.4375 9V10.5H4.4375V9H0.4375ZM0.437501 10.4992C0.437123 11.3876 0.649566 12.2632 1.05705 13.0527L4.61153 11.2181C4.49707 10.9964 4.43739 10.7504 4.4375 10.5008L0.437501 10.4992ZM1.05705 13.0527C1.46453 13.8422 2.05519 14.5226 2.77961 15.037L5.09539 11.7755C4.89191 11.631 4.72599 11.4399 4.61153 11.2181L1.05705 13.0527ZM1.9375 13.4062V19.5H5.9375V13.4062H1.9375ZM1.9375 19.5C1.9375 20.3785 2.2865 21.2211 2.90771 21.8423L5.73614 19.0139C5.86507 19.1428 5.9375 19.3177 5.9375 19.5L1.9375 19.5ZM2.90771 21.8423C3.52892 22.4635 4.37147 22.8125 5.25 22.8125V18.8125C5.43234 18.8125 5.60721 18.8849 5.73614 19.0139L2.90771 21.8423ZM5.25 22.8125H18.75V18.8125H5.25V22.8125ZM18.75 22.8125C19.6285 22.8125 20.4711 22.4635 21.0923 21.8423L18.2639 19.0139C18.3928 18.8849 18.5677 18.8125 18.75 18.8125V22.8125ZM21.0923 21.8423C21.7135 21.2211 22.0625 20.3785 22.0625 19.5H18.0625C18.0625 19.3177 18.1349 19.1428 18.2639 19.0139L21.0923 21.8423ZM22.0625 19.5V13.4062H18.0625V19.5H22.0625ZM21.2204 15.037C21.9448 14.5226 22.5355 13.8422 22.943 13.0527L19.3885 11.2181C19.274 11.4399 19.1081 11.631 18.9046 11.7755L21.2204 15.037ZM22.943 13.0527C23.3504 12.2632 23.5629 11.3876 23.5625 10.4992L19.5625 10.5008C19.5626 10.7504 19.5029 10.9964 19.3885 11.2181L22.943 13.0527ZM23.5625 10.5V9H19.5625V10.5H23.5625ZM6.80828 4.99817C6.70143 5.37191 6.47726 5.70141 6.16885 5.93802L3.73407 2.7644C3.36185 3.04997 3.0913 3.44764 2.96235 3.89871L6.80828 4.99817ZM6.16885 5.93802C5.86044 6.17463 5.48414 6.30582 5.09547 6.31223L5.02953 2.31277C4.56045 2.3205 4.10629 2.47884 3.73407 2.7644L6.16885 5.93802ZM5.0625 6.3125H18.9375V2.3125H5.0625V6.3125ZM18.9346 6.3125C18.5413 6.31193 18.1588 6.18342 17.8449 5.94638L20.2555 2.75437C19.8767 2.46828 19.4151 2.31319 18.9404 2.3125L18.9346 6.3125ZM17.8449 5.94638C17.531 5.70933 17.3028 5.3766 17.1946 4.99844L21.0404 3.89844C20.9098 3.44203 20.6344 3.04047 20.2555 2.75437L17.8449 5.94638ZM17.1941 4.99675L18.3313 8.98581L22.1781 7.88919L21.0409 3.90013L17.1941 4.99675ZM20.2547 6.4375H3.75V10.4375H20.2547V6.4375ZM5.67361 8.98497L6.80892 4.99591L2.9617 3.90097L1.82639 7.89003L5.67361 8.98497ZM9.5625 11.5625H14.4375V7.5625H9.5625V11.5625ZM12.4375 9.5625V10.5H16.4375V9.5625H12.4375ZM12.4375 10.5C12.4375 10.616 12.3914 10.7273 12.3094 10.8094L15.1378 13.6378C15.97 12.8056 16.4375 11.6769 16.4375 10.5L12.4375 10.5ZM12.3094 10.8094C12.2273 10.8914 12.116 10.9375 12 10.9375V14.9375C13.1769 14.9375 14.3056 14.47 15.1378 13.6378L12.3094 10.8094ZM12 10.9375C11.884 10.9375 11.7727 10.8914 11.6906 10.8094L8.86221 13.6378C9.69441 14.47 10.8231 14.9375 12 14.9375V10.9375ZM11.6906 10.8094C11.6086 10.7273 11.5625 10.616 11.5625 10.5L7.5625 10.5C7.5625 11.6769 8.03002 12.8056 8.86221 13.6378L11.6906 10.8094ZM11.5625 10.5V9.5625H7.5625V10.5H11.5625ZM3.5625 11.5625H8.4375V7.5625H3.5625V11.5625ZM6.4375 9.5625V10.5H10.4375V9.5625H6.4375ZM6.4375 10.5C6.4375 10.616 6.39141 10.7273 6.30936 10.8094L9.13779 13.6378C9.96998 12.8056 10.4375 11.6769 10.4375 10.5L6.4375 10.5ZM6.30936 10.8094C6.22731 10.8914 6.11603 10.9375 6 10.9375V14.9375C7.1769 14.9375 8.30559 14.47 9.13779 13.6378L6.30936 10.8094ZM6 10.9375C5.88397 10.9375 5.77269 10.8914 5.69064 10.8094L2.86221 13.6378C3.69441 14.47 4.8231 14.9375 6 14.9375V10.9375ZM5.69064 10.8094C5.60859 10.7273 5.5625 10.616 5.5625 10.5H1.5625C1.5625 11.6769 2.03002 12.8056 2.86221 13.6378L5.69064 10.8094ZM5.5625 10.5V9.5625H1.5625V10.5H5.5625ZM16.9375 19.5C16.9375 19.0193 17.1285 18.5583 17.4684 18.2184L20.2968 21.0468C20.707 20.6366 20.9375 20.0802 20.9375 19.5H16.9375ZM17.4684 18.2184C17.8083 17.8785 18.2693 17.6875 18.75 17.6875V21.6875C19.3302 21.6875 19.8866 21.457 20.2968 21.0468L17.4684 18.2184ZM18.75 17.6875H5.25V21.6875H18.75V17.6875ZM5.25 17.6875C5.7307 17.6875 6.19172 17.8785 6.53163 18.2184L3.7032 21.0468C4.11344 21.457 4.66984 21.6875 5.25 21.6875V17.6875ZM6.53163 18.2184C6.87154 18.5583 7.0625 19.0193 7.0625 19.5H3.0625C3.0625 20.0802 3.29296 20.6366 3.7032 21.0468L6.53163 18.2184ZM7.0625 19.5V13.9369H3.0625V19.5H7.0625ZM4.53743 15.8667C5.68131 16.1779 6.8947 16.1156 8.00065 15.6887L6.56039 11.957C6.24973 12.0769 5.90889 12.0945 5.58757 12.007L4.53743 15.8667ZM8.00065 15.6887C9.10661 15.2619 10.0473 14.4929 10.6855 13.4939L7.31455 11.3405C7.13528 11.6211 6.87105 11.8371 6.56039 11.957L8.00065 15.6887ZM7.31357 13.4923C7.81577 14.2801 8.50844 14.9285 9.32756 15.3777L11.2509 11.8705C11.0213 11.7446 10.8272 11.5628 10.6864 11.342L7.31357 13.4923ZM9.32756 15.3777C10.1467 15.8269 11.0658 16.0624 12 16.0624V12.0624C11.7381 12.0624 11.4805 11.9964 11.2509 11.8705L9.32756 15.3777ZM12 16.0624C12.9342 16.0624 13.8533 15.8269 14.6724 15.3777L12.7491 11.8705C12.5195 11.9964 12.2618 12.0624 12 12.0624V16.0624ZM14.6724 15.3777C15.4916 14.9285 16.1842 14.2801 16.6864 13.4923L13.3136 11.342C13.1728 11.5628 12.9787 11.7446 12.7491 11.8705L14.6724 15.3777ZM13.3145 13.4939C13.9527 14.4929 14.8934 15.2619 15.9993 15.6887L17.4396 11.957C17.1289 11.8371 16.8647 11.6211 16.6855 11.3405L13.3145 13.4939ZM15.9993 15.6887C17.1053 16.1156 18.3187 16.1779 19.4626 15.8667L18.4124 12.007C18.0911 12.0945 17.7503 12.0769 17.4396 11.957L15.9993 15.6887ZM16.9375 13.9369V19.5H20.9375V13.9369H16.9375ZM18 10.9375C17.884 10.9375 17.7727 10.8914 17.6906 10.8094L14.8622 13.6378C15.6944 14.47 16.8231 14.9375 18 14.9375V10.9375ZM17.6906 10.8094C17.6086 10.7273 17.5625 10.616 17.5625 10.5H13.5625C13.5625 11.6769 14.03 12.8056 14.8622 13.6378L17.6906 10.8094ZM17.5625 10.5V9.5625H13.5625V10.5H17.5625ZM15.5625 11.5625H20.4375V7.5625H15.5625V11.5625ZM18.4375 9.5625V10.5H22.4375V9.5625H18.4375ZM18.4375 10.5C18.4375 10.616 18.3914 10.7273 18.3094 10.8094L21.1378 13.6378C21.97 12.8056 22.4375 11.6769 22.4375 10.5L18.4375 10.5ZM18.3094 10.8094C18.2273 10.8914 18.116 10.9375 18 10.9375V14.9375C19.1769 14.9375 20.3056 14.47 21.1378 13.6378L18.3094 10.8094Z" fill="black" mask="url(#path-1-inside-1_2508_13821)"/>
</svg>
