<svg width="24" height="24" viewBox="0 0 24 24" fill="none" xmlns="http://www.w3.org/2000/svg">
<mask id="path-1-inside-1_2508_13814" fill="white">
<path d="M2.25 9.74953H4.5V15.7495H3C2.80109 15.7495 2.61032 15.8285 2.46967 15.9692C2.32902 16.1099 2.25 16.3006 2.25 16.4995C2.25 16.6984 2.32902 16.8892 2.46967 17.0299C2.61032 17.1705 2.80109 17.2495 3 17.2495H21C21.1989 17.2495 21.3897 17.1705 21.5303 17.0299C21.671 16.8892 21.75 16.6984 21.75 16.4995C21.75 16.3006 21.671 16.1099 21.5303 15.9692C21.3897 15.8285 21.1989 15.7495 21 15.7495H19.5V9.74953H21.75C21.9132 9.74937 22.0719 9.69599 22.202 9.59748C22.3321 9.49898 22.4265 9.36073 22.4709 9.20371C22.5153 9.04669 22.5073 8.87946 22.4481 8.72739C22.3889 8.57533 22.2817 8.44673 22.1428 8.3611L12.3928 2.3611C12.2747 2.28846 12.1387 2.25 12 2.25C11.8613 2.25 11.7253 2.28846 11.6072 2.3611L1.85719 8.3611C1.71828 8.44673 1.61108 8.57533 1.55187 8.72739C1.49266 8.87946 1.48466 9.04669 1.52908 9.20371C1.57351 9.36073 1.66793 9.49898 1.79803 9.59748C1.92814 9.69599 2.08681 9.74937 2.25 9.74953ZM6 9.74953H9V15.7495H6V9.74953ZM13.5 9.74953V15.7495H10.5V9.74953H13.5ZM18 15.7495H15V9.74953H18V15.7495ZM12 3.87985L19.1006 8.24953H4.89937L12 3.87985ZM23.25 19.4995C23.25 19.6984 23.171 19.8892 23.0303 20.0299C22.8897 20.1705 22.6989 20.2495 22.5 20.2495H1.5C1.30109 20.2495 1.11032 20.1705 0.96967 20.0299C0.829018 19.8892 0.75 19.6984 0.75 19.4995C0.75 19.3006 0.829018 19.1099 0.96967 18.9692C1.11032 18.8285 1.30109 18.7495 1.5 18.7495H22.5C22.6989 18.7495 22.8897 18.8285 23.0303 18.9692C23.171 19.1099 23.25 19.3006 23.25 19.4995Z"/>
</mask>
<path d="M2.25 9.74953H4.5V15.7495H3C2.80109 15.7495 2.61032 15.8285 2.46967 15.9692C2.32902 16.1099 2.25 16.3006 2.25 16.4995C2.25 16.6984 2.32902 16.8892 2.46967 17.0299C2.61032 17.1705 2.80109 17.2495 3 17.2495H21C21.1989 17.2495 21.3897 17.1705 21.5303 17.0299C21.671 16.8892 21.75 16.6984 21.75 16.4995C21.75 16.3006 21.671 16.1099 21.5303 15.9692C21.3897 15.8285 21.1989 15.7495 21 15.7495H19.5V9.74953H21.75C21.9132 9.74937 22.0719 9.69599 22.202 9.59748C22.3321 9.49898 22.4265 9.36073 22.4709 9.20371C22.5153 9.04669 22.5073 8.87946 22.4481 8.72739C22.3889 8.57533 22.2817 8.44673 22.1428 8.3611L12.3928 2.3611C12.2747 2.28846 12.1387 2.25 12 2.25C11.8613 2.25 11.7253 2.28846 11.6072 2.3611L1.85719 8.3611C1.71828 8.44673 1.61108 8.57533 1.55187 8.72739C1.49266 8.87946 1.48466 9.04669 1.52908 9.20371C1.57351 9.36073 1.66793 9.49898 1.79803 9.59748C1.92814 9.69599 2.08681 9.74937 2.25 9.74953ZM6 9.74953H9V15.7495H6V9.74953ZM13.5 9.74953V15.7495H10.5V9.74953H13.5ZM18 15.7495H15V9.74953H18V15.7495ZM12 3.87985L19.1006 8.24953H4.89937L12 3.87985ZM23.25 19.4995C23.25 19.6984 23.171 19.8892 23.0303 20.0299C22.8897 20.1705 22.6989 20.2495 22.5 20.2495H1.5C1.30109 20.2495 1.11032 20.1705 0.96967 20.0299C0.829018 19.8892 0.75 19.6984 0.75 19.4995C0.75 19.3006 0.829018 19.1099 0.96967 18.9692C1.11032 18.8285 1.30109 18.7495 1.5 18.7495H22.5C22.6989 18.7495 22.8897 18.8285 23.0303 18.9692C23.171 19.1099 23.25 19.3006 23.25 19.4995Z" fill="black"/>
<path d="M2.25 9.74953L2.24798 11.7495H2.25V9.74953ZM4.5 9.74953H6.5V7.74953H4.5V9.74953ZM4.5 15.7495V17.7495H6.5V15.7495H4.5ZM2.25 16.4995L0.25 16.4995L2.25 16.4995ZM19.5 15.7495H17.5V17.7495H19.5V15.7495ZM19.5 9.74953V7.74953H17.5V9.74953H19.5ZM21.75 9.74953L21.75 11.7495L21.752 11.7495L21.75 9.74953ZM22.1428 8.3611L23.1923 6.65859L23.191 6.65778L22.1428 8.3611ZM12.3928 2.3611L13.441 0.657779L13.4403 0.657352L12.3928 2.3611ZM11.6072 2.3611L10.5597 0.657352L10.559 0.657779L11.6072 2.3611ZM1.85719 8.3611L0.808992 6.65778L0.807668 6.65859L1.85719 8.3611ZM6 9.74953V7.74953H4V9.74953H6ZM9 9.74953H11V7.74953H9V9.74953ZM9 15.7495V17.7495H11V15.7495H9ZM6 15.7495H4V17.7495H6V15.7495ZM13.5 9.74953H15.5V7.74953H13.5V9.74953ZM13.5 15.7495V17.7495H15.5V15.7495H13.5ZM10.5 15.7495H8.5V17.7495H10.5V15.7495ZM10.5 9.74953V7.74953H8.5V9.74953H10.5ZM18 15.7495V17.7495H20V15.7495H18ZM15 15.7495H13V17.7495H15V15.7495ZM15 9.74953V7.74953H13V9.74953H15ZM18 9.74953H20V7.74953H18V9.74953ZM12 3.87985L13.0482 2.17654L12 1.53148L10.9518 2.17654L12 3.87985ZM19.1006 8.24953V10.2495H26.1666L20.1488 6.54622L19.1006 8.24953ZM4.89937 8.24953L3.85117 6.54622L-2.16661 10.2495H4.89937V8.24953ZM0.75 19.4995H-1.25H0.75ZM2.25 11.7495H4.5V7.74953H2.25V11.7495ZM2.5 9.74953V15.7495H6.5V9.74953H2.5ZM4.5 13.7495H3V17.7495H4.5V13.7495ZM3 13.7495C2.27066 13.7495 1.57118 14.0393 1.05546 14.555L3.88388 17.3834C3.64946 17.6178 3.33152 17.7495 3 17.7495V13.7495ZM1.05546 14.555C0.53973 15.0707 0.25 15.7702 0.25 16.4995L4.25 16.4995C4.25 16.8311 4.11831 17.149 3.88388 17.3834L1.05546 14.555ZM0.25 16.4995C0.25 17.2289 0.53973 17.9284 1.05546 18.4441L3.88388 15.6156C4.11831 15.8501 4.25 16.168 4.25 16.4995L0.25 16.4995ZM1.05546 18.4441C1.57118 18.9598 2.27066 19.2495 3 19.2495V15.2495C3.33152 15.2495 3.64946 15.3812 3.88388 15.6156L1.05546 18.4441ZM3 19.2495H21V15.2495H3V19.2495ZM21 19.2495C21.7293 19.2495 22.4288 18.9598 22.9445 18.4441L20.1161 15.6156C20.3505 15.3812 20.6685 15.2495 21 15.2495V19.2495ZM22.9445 18.4441C23.4603 17.9283 23.75 17.2289 23.75 16.4995H19.75C19.75 16.168 19.8817 15.8501 20.1161 15.6156L22.9445 18.4441ZM23.75 16.4995C23.75 15.7702 23.4603 15.0707 22.9445 14.555L20.1161 17.3834C19.8817 17.149 19.75 16.831 19.75 16.4995H23.75ZM22.9445 14.555C22.4288 14.0393 21.7293 13.7495 21 13.7495V17.7495C20.6685 17.7495 20.3505 17.6178 20.1161 17.3834L22.9445 14.555ZM21 13.7495H19.5V17.7495H21V13.7495ZM21.5 15.7495V9.74953H17.5V15.7495H21.5ZM19.5 11.7495H21.75V7.74953H19.5V11.7495ZM21.752 11.7495C22.3504 11.7489 22.9322 11.5532 23.4092 11.192L20.9947 8.00295C21.2115 7.83878 21.476 7.74981 21.748 7.74953L21.752 11.7495ZM23.4092 11.192C23.8863 10.8308 24.2325 10.3239 24.3954 9.74817L20.5465 8.65924C20.6205 8.39754 20.7779 8.16713 20.9947 8.00295L23.4092 11.192ZM24.3954 9.74817C24.5583 9.17243 24.5289 8.55926 24.3118 8.00169L20.5844 9.4531C20.4857 9.19965 20.4724 8.92094 20.5465 8.65924L24.3954 9.74817ZM24.3118 8.00169C24.0947 7.44412 23.7017 6.97258 23.1923 6.65859L21.0933 10.0636C20.8618 9.92088 20.6831 9.70654 20.5844 9.4531L24.3118 8.00169ZM23.191 6.65778L13.441 0.657779L11.3446 4.06441L21.0946 10.0644L23.191 6.65778ZM13.4403 0.657352C13.0071 0.391008 12.5085 0.25 12 0.25V4.25C11.7688 4.25 11.5422 4.18591 11.3453 4.06484L13.4403 0.657352ZM12 0.25C11.4915 0.25 10.9929 0.391008 10.5597 0.657352L12.6547 4.06484C12.4578 4.18591 12.2312 4.25 12 4.25V0.25ZM10.559 0.657779L0.808993 6.65778L2.90538 10.0644L12.6554 4.06441L10.559 0.657779ZM0.807668 6.65859C0.298328 6.97258 -0.0947108 7.44412 -0.311822 8.00169L3.41557 9.4531C3.31688 9.70654 3.13822 9.92088 2.90671 10.0636L0.807668 6.65859ZM-0.311822 8.00169C-0.528933 8.55926 -0.558269 9.17242 -0.39538 9.74817L3.45355 8.65924C3.52759 8.92095 3.51425 9.19966 3.41557 9.4531L-0.311822 8.00169ZM-0.39538 9.74817C-0.232492 10.3239 0.113732 10.8308 0.590773 11.192L3.0053 8.00295C3.22213 8.16713 3.37951 8.39754 3.45355 8.65924L-0.39538 9.74817ZM0.590773 11.192C1.06781 11.5532 1.64964 11.7489 2.24798 11.7495L2.25202 7.74953C2.52399 7.74981 2.78846 7.83878 3.0053 8.00295L0.590773 11.192ZM6 11.7495H9V7.74953H6V11.7495ZM7 9.74953V15.7495H11V9.74953H7ZM9 13.7495H6V17.7495H9V13.7495ZM8 15.7495V9.74953H4V15.7495H8ZM11.5 9.74953V15.7495H15.5V9.74953H11.5ZM13.5 13.7495H10.5V17.7495H13.5V13.7495ZM12.5 15.7495V9.74953H8.5V15.7495H12.5ZM10.5 11.7495H13.5V7.74953H10.5V11.7495ZM18 13.7495H15V17.7495H18V13.7495ZM17 15.7495V9.74953H13V15.7495H17ZM15 11.7495H18V7.74953H15V11.7495ZM16 9.74953V15.7495H20V9.74953H16ZM10.9518 5.58315L18.0524 9.95284L20.1488 6.54622L13.0482 2.17654L10.9518 5.58315ZM19.1006 6.24953H4.89937V10.2495H19.1006V6.24953ZM5.94758 9.95284L13.0482 5.58315L10.9518 2.17654L3.85117 6.54622L5.94758 9.95284ZM21.25 19.4995C21.25 19.168 21.3817 18.8501 21.6161 18.6156L24.4445 21.4441C24.9603 20.9283 25.25 20.2289 25.25 19.4995H21.25ZM21.6161 18.6156C21.8505 18.3812 22.1685 18.2495 22.5 18.2495V22.2495C23.2293 22.2495 23.9288 21.9598 24.4445 21.4441L21.6161 18.6156ZM22.5 18.2495H1.5V22.2495H22.5V18.2495ZM1.5 18.2495C1.83152 18.2495 2.14946 18.3812 2.38388 18.6156L-0.444544 21.4441C0.0711842 21.9598 0.770659 22.2495 1.5 22.2495V18.2495ZM2.38388 18.6156C2.61831 18.8501 2.75 19.168 2.75 19.4995H-1.25C-1.25 20.2289 -0.96027 20.9284 -0.444544 21.4441L2.38388 18.6156ZM2.75 19.4995C2.75 19.8311 2.61831 20.149 2.38388 20.3834L-0.444544 17.555C-0.96027 18.0707 -1.25 18.7702 -1.25 19.4995H2.75ZM2.38388 20.3834C2.14946 20.6178 1.83152 20.7495 1.5 20.7495V16.7495C0.770659 16.7495 0.0711842 17.0393 -0.444544 17.555L2.38388 20.3834ZM1.5 20.7495H22.5V16.7495H1.5V20.7495ZM22.5 20.7495C22.1685 20.7495 21.8505 20.6178 21.6161 20.3834L24.4445 17.555C23.9288 17.0393 23.2293 16.7495 22.5 16.7495V20.7495ZM21.6161 20.3834C21.3817 20.149 21.25 19.831 21.25 19.4995H25.25C25.25 18.7702 24.9603 18.0707 24.4445 17.555L21.6161 20.3834Z" fill="black" mask="url(#path-1-inside-1_2508_13814)"/>
</svg>
