<svg width="28" height="27" viewBox="0 0 28 27" fill="none" xmlns="http://www.w3.org/2000/svg">
<path d="M27.2978 24.2498C25.584 21.242 22.9079 18.8983 19.7003 17.5961C21.2954 16.3998 22.4737 14.7319 23.0682 12.8287C23.6627 10.9255 23.6433 8.88349 23.0128 6.99193C22.3823 5.10037 21.1726 3.45514 19.555 2.28929C17.9375 1.12345 15.9942 0.496094 14.0003 0.496094C12.0064 0.496094 10.0631 1.12345 8.44555 2.28929C6.82803 3.45514 5.61833 5.10037 4.98781 6.99193C4.35729 8.88349 4.33791 10.9255 4.93242 12.8287C5.52693 14.7319 6.70519 16.3998 8.3003 17.5961C5.0927 18.8983 2.4166 21.242 0.702799 24.2498C0.596606 24.4206 0.525828 24.611 0.494675 24.8096C0.463521 25.0083 0.472627 25.2112 0.521451 25.4062C0.570275 25.6013 0.657821 25.7845 0.778884 25.9451C0.899947 26.1057 1.05206 26.2402 1.22617 26.3408C1.40028 26.4414 1.59284 26.506 1.7924 26.5307C1.99196 26.5553 2.19445 26.5397 2.38782 26.4845C2.5812 26.4294 2.76152 26.3359 2.91806 26.2097C3.0746 26.0835 3.20416 25.9271 3.29905 25.7498C5.56405 21.8348 9.56405 19.4998 14.0003 19.4998C18.4365 19.4998 22.4365 21.8361 24.7015 25.7498C24.9072 26.0805 25.2334 26.3182 25.6111 26.4128C25.9888 26.5073 26.3885 26.4513 26.7257 26.2565C27.0629 26.0617 27.3111 25.7434 27.4178 25.3689C27.5246 24.9945 27.4816 24.5932 27.2978 24.2498ZM7.5003 9.99984C7.5003 8.71426 7.88152 7.45756 8.59575 6.38864C9.30998 5.31972 10.3251 4.4866 11.5129 3.99463C12.7006 3.50266 14.0075 3.37394 15.2684 3.62474C16.5293 3.87554 17.6875 4.49461 18.5965 5.40365C19.5055 6.31269 20.1246 7.47088 20.3754 8.73176C20.6262 9.99263 20.4975 11.2996 20.0055 12.4873C19.5135 13.675 18.6804 14.6902 17.6115 15.4044C16.5426 16.1186 15.2859 16.4998 14.0003 16.4998C12.277 16.4979 10.6249 15.8124 9.4063 14.5938C8.18774 13.3753 7.50228 11.7231 7.5003 9.99984Z" fill="white"/>
</svg>
