<svg width="20" height="21" viewBox="0 0 20 21" fill="none" xmlns="http://www.w3.org/2000/svg">
<path d="M5.40304 3.61523C3.44234 3.61523 2.53986 5.953 4.10726 7.12878C4.64158 5.78481 5.70526 4.81979 7.0997 4.4389C6.71825 3.94215 6.10196 3.61523 5.40304 3.61523Z" fill="white"/>
<path d="M1.35207 6.76332C1.43197 7.00484 1.5355 7.23655 1.65849 7.45608L1.01442 8.06312C0.841459 8.22605 0.841459 8.4905 1.01442 8.65377L2.14968 9.72351C2.23236 9.80139 2.34564 9.84522 2.46371 9.84522C2.58048 9.84522 2.693 9.80139 2.77711 9.72351L3.42046 9.11647C3.51701 9.1646 3.62403 9.1941 3.72402 9.23561C3.72402 9.2287 3.7233 9.22153 3.7233 9.21462C3.7233 8.71855 3.78379 8.25058 3.89148 7.81114C3.11471 7.34023 2.59641 6.5228 2.59641 5.58952C2.59641 4.13168 3.85533 2.94545 5.4026 2.94545C6.45031 2.94545 7.35489 3.49488 7.83777 4.2976C8.3533 4.23737 8.83756 4.23737 9.42047 4.34113C9.34548 4.12746 9.25726 3.91834 9.14675 3.72233L9.79082 3.11499C9.87484 3.03677 9.92137 2.9304 9.92137 2.81982C9.92137 2.70919 9.87484 2.60286 9.79082 2.52464L8.65618 1.45557C8.56939 1.37377 8.45611 1.33319 8.34287 1.33319C8.22959 1.33319 8.11636 1.37377 8.03019 1.45557L7.38406 2.06291C7.15066 1.94642 6.9054 1.8489 6.64837 1.77528V0.917226C6.64837 0.686867 6.45102 0.5 6.20576 0.5H4.60015C4.35628 0.5 4.15683 0.686867 4.15683 0.917226V1.77524C3.90047 1.84886 3.65517 1.94638 3.42105 2.06287L2.77711 1.45621C2.69023 1.3744 2.57699 1.33382 2.46371 1.33382C2.35048 1.33382 2.23657 1.3744 2.1504 1.45587L1.01442 2.52494C0.931743 2.60349 0.885214 2.70948 0.885214 2.82045C0.885214 2.93137 0.931743 3.03741 1.01442 3.11563L1.65849 3.72263C1.53546 3.94253 1.43197 4.1739 1.3535 4.41539H0.443323C0.198061 4.41539 0 4.60255 0 4.83325V6.34575C0 6.57578 0.198061 6.76332 0.443323 6.76332H1.35207Z" fill="white"/>
<path d="M15.2608 14.8568C15.9709 14.4899 16.4586 13.7877 16.4586 12.9728C16.4586 11.7837 15.431 10.8164 14.1686 10.8164C13.7247 10.8164 13.3133 10.9414 12.9618 11.1482C12.7513 11.9375 12.4199 12.6924 11.9863 13.3482C13.2153 13.5658 14.343 14.093 15.2608 14.8568Z" fill="white"/>
<path d="M19.9997 12.1567C19.9997 11.9077 19.785 11.7061 19.5216 11.7061H18.5393C18.4545 11.4453 18.342 11.1953 18.2085 10.958L18.904 10.3029C18.9944 10.2185 19.0443 10.104 19.0443 9.98455C19.0443 9.86507 18.9943 9.75052 18.904 9.66581L17.6798 8.51229C17.5867 8.42421 17.4637 8.38004 17.3415 8.38004C17.2192 8.38004 17.0969 8.42421 17.0039 8.51229L16.307 9.16771C16.0554 9.04204 15.7907 8.93672 15.5128 8.85715V7.93175C15.5128 7.68306 15.2995 7.48145 15.0355 7.48145H13.3035C13.1874 7.48145 13.0853 7.52528 13.002 7.59009C13.1478 8.0914 13.2277 8.63497 13.2277 9.21483C13.2277 9.58296 13.1972 9.95673 13.1402 10.3284C13.4625 10.2165 13.8057 10.1462 14.1692 10.1462C15.8241 10.1462 17.1705 11.4142 17.1705 12.9728C17.1705 13.9689 16.6182 14.842 15.7894 15.3456C16.3924 15.9687 16.8718 16.7079 17.1838 17.5361C17.2352 17.5528 17.2887 17.5649 17.3422 17.5649C17.4644 17.5649 17.5868 17.5211 17.6805 17.433L18.9055 16.2795C18.9951 16.195 19.0444 16.0805 19.0444 15.9611C19.0444 15.8416 18.9951 15.7271 18.9055 15.6423L18.2086 14.9869C18.342 14.75 18.4545 14.4999 18.5394 14.2389H19.5217C19.6481 14.2389 19.7711 14.1917 19.8601 14.1066C19.9497 14.0225 20.0005 13.9077 20.0005 13.7882L19.9997 12.1567Z" fill="white"/>
<path d="M16.2088 17.9437C15.466 15.885 13.5033 14.4691 11.2376 14.2764C10.4789 15.0332 9.53958 15.5133 8.47581 15.5133C7.41285 15.5133 6.47279 15.0332 5.71481 14.2764C3.44777 14.4691 1.48501 15.885 0.742247 17.944L0.331673 19.0824C0.214232 19.41 0.270469 19.771 0.484503 20.052C0.698492 20.3332 1.04312 20.5001 1.40994 20.5001H15.541C15.9086 20.5001 16.2532 20.3332 16.4672 20.052C16.6805 19.771 16.7375 19.41 16.6193 19.0824L16.2088 17.9437Z" fill="white"/>
<path d="M4.79102 9.21492C4.79102 11.7684 6.44114 14.5083 8.4754 14.5083C10.5105 14.5083 12.1605 11.7684 12.1605 9.21492C12.1605 3.92189 4.79102 3.91139 4.79102 9.21492Z" fill="white"/>
</svg>
