<svg width="24" height="24" viewBox="0 0 24 24" fill="none" xmlns="http://www.w3.org/2000/svg">
<path d="M10.25 9.98737C10.0898 9.82391 10 9.60409 10 9.375C10 9.14591 10.0898 8.92609 10.25 8.76263V9.98737ZM13.75 15.5V13.75H13.875C14.1071 13.75 14.3296 13.8422 14.4937 14.0063C14.6578 14.1704 14.75 14.3929 14.75 14.625C14.75 14.8571 14.6578 15.0796 14.4937 15.2437C14.3296 15.4078 14.1071 15.5 13.875 15.5H13.75ZM20.75 12C20.75 13.7306 20.2368 15.4223 19.2754 16.8612C18.3139 18.3002 16.9473 19.4217 15.3485 20.0839C13.7496 20.7462 11.9903 20.9195 10.293 20.5819C8.59563 20.2442 7.03653 19.4109 5.81282 18.1872C4.58911 16.9635 3.75575 15.4044 3.41813 13.707C3.08051 12.0097 3.25379 10.2504 3.91606 8.65152C4.57833 7.05267 5.69983 5.6861 7.13876 4.72464C8.57754 3.76328 10.2691 3.25011 11.9995 3.25C14.3194 3.25258 16.5437 4.17534 18.1842 5.81583C19.8245 7.45619 20.7473 9.68021 20.75 12ZM18.25 14.625C18.25 13.4647 17.7891 12.3519 16.9686 11.5314C16.7777 11.3405 16.571 11.1691 16.3515 11.0184C16.5882 10.9317 16.8058 10.7941 16.9874 10.6124C17.3156 10.2842 17.5 9.83913 17.5 9.375C17.5 8.21468 17.0391 7.10188 16.2186 6.28141C15.5439 5.60674 14.6716 5.17518 13.7377 5.0431C13.6916 4.65518 13.5165 4.29161 13.2374 4.01256C12.9093 3.68437 12.4641 3.5 12 3.5C11.5359 3.5 11.0908 3.68438 10.7626 4.01256C10.4835 4.29161 10.3084 4.65518 10.2623 5.0431C9.3284 5.17518 8.45608 5.60674 7.78141 6.28141C6.96094 7.10188 6.5 8.21468 6.5 9.375C6.5 10.5353 6.96094 11.6481 7.78141 12.4686C7.95336 12.6405 8.13815 12.7967 8.33353 12.9361C8.18533 12.8959 8.03125 12.875 7.875 12.875C7.41088 12.875 6.96576 13.0594 6.63757 13.3876C6.30938 13.7158 6.125 14.1609 6.125 14.625C6.125 15.7853 6.58594 16.8981 7.40641 17.7186C8.17181 18.484 9.19161 18.9365 10.2671 18.9938C10.3197 19.3678 10.4924 19.7173 10.7626 19.9874C11.0908 20.3156 11.5359 20.5 12 20.5C12.4641 20.5 12.9093 20.3156 13.2374 19.9874C13.5061 19.7188 13.6784 19.3717 13.7321 19H13.875C15.0353 19 16.1481 18.5391 16.9686 17.7186C17.7891 16.8981 18.25 15.7853 18.25 14.625ZM14 9.375C14 9.69095 14.0854 9.99809 14.2435 10.2655C14.1214 10.2552 13.9985 10.25 13.875 10.25H13.75V8.76263C13.9102 8.92609 14 9.14591 14 9.375ZM9.09719 13.3725C9.463 13.5352 9.85082 13.6475 10.25 13.7051V15.4635C10.112 15.4224 9.98497 15.3474 9.88129 15.2437C9.71719 15.0796 9.625 14.8571 9.625 14.625C9.625 14.1609 9.44063 13.7158 9.11244 13.3876C9.10739 13.3825 9.1023 13.3775 9.09719 13.3725Z" fill="black" stroke="black" stroke-width="2"/>
</svg>
