<svg width="18" height="14" viewBox="0 0 18 14" fill="none" xmlns="http://www.w3.org/2000/svg">
<mask id="path-1-inside-1_1047_4528" fill="white">
<path d="M11.8469 6.47969L8.09688 3.97969C8.00273 3.91688 7.89329 3.88081 7.78024 3.87533C7.6672 3.86985 7.55479 3.89517 7.45501 3.94859C7.35523 4.00201 7.27183 4.08152 7.21371 4.17864C7.15559 4.27575 7.12493 4.38682 7.125 4.5V9.5C7.12493 9.61318 7.15559 9.72426 7.21371 9.82137C7.27183 9.91848 7.35523 9.99799 7.45501 10.0514C7.55479 10.1048 7.6672 10.1302 7.78024 10.1247C7.89329 10.1192 8.00273 10.0831 8.09688 10.0203L11.8469 7.52032C11.9326 7.46326 12.0029 7.38591 12.0515 7.29514C12.1002 7.20436 12.1256 7.10298 12.1256 7C12.1256 6.89702 12.1002 6.79564 12.0515 6.70487C12.0029 6.61409 11.9326 6.53674 11.8469 6.47969ZM8.375 8.33203V5.67188L10.3734 7L8.375 8.33203ZM17.307 2.43125C17.2334 2.14324 17.0924 1.87686 16.8956 1.65409C16.6987 1.43132 16.4517 1.25854 16.175 1.15C13.4969 0.115628 9.23438 0.125003 9 0.125003C8.76562 0.125003 4.50312 0.115628 1.825 1.15C1.54825 1.25854 1.30128 1.43132 1.10445 1.65409C0.907621 1.87686 0.766583 2.14324 0.692969 2.43125C0.490625 3.21094 0.25 4.63594 0.25 7C0.25 9.36407 0.490625 10.7891 0.692969 11.5688C0.766472 11.8569 0.907461 12.1234 1.1043 12.3464C1.30113 12.5693 1.54816 12.7422 1.825 12.8508C4.39062 13.8406 8.40625 13.875 8.94844 13.875H9.05156C9.59375 13.875 13.6117 13.8406 16.175 12.8508C16.4518 12.7422 16.6989 12.5693 16.8957 12.3464C17.0925 12.1234 17.2335 11.8569 17.307 11.5688C17.5094 10.7875 17.75 9.36407 17.75 7C17.75 4.63594 17.5094 3.21094 17.307 2.43125ZM16.0969 11.2594C16.0731 11.3552 16.0269 11.4441 15.9621 11.5186C15.8973 11.5932 15.8158 11.6513 15.7242 11.6883C13.2516 12.643 9.04609 12.6258 9.00547 12.6258H9C8.95781 12.6258 4.75547 12.6414 2.28125 11.6883C2.18966 11.6513 2.10814 11.5932 2.04337 11.5186C1.97859 11.4441 1.9324 11.3552 1.90859 11.2594C1.71875 10.5461 1.5 9.23203 1.5 7C1.5 4.76797 1.71875 3.45391 1.90312 2.74453C1.92649 2.64811 1.97248 2.55864 2.03728 2.48351C2.10208 2.40839 2.18383 2.34977 2.27578 2.3125C4.66016 1.39141 8.65547 1.375 8.98281 1.375H9.00391C9.04609 1.375 13.2523 1.36094 15.7227 2.3125C15.8142 2.34947 15.8958 2.40761 15.9605 2.48216C16.0253 2.55671 16.0715 2.64556 16.0953 2.74141C16.2813 3.45391 16.5 4.76797 16.5 7C16.5 9.23203 16.2812 10.5461 16.0969 11.2555V11.2594Z"/>
</mask>
<path d="M11.8469 6.47969L8.09688 3.97969C8.00273 3.91688 7.89329 3.88081 7.78024 3.87533C7.6672 3.86985 7.55479 3.89517 7.45501 3.94859C7.35523 4.00201 7.27183 4.08152 7.21371 4.17864C7.15559 4.27575 7.12493 4.38682 7.125 4.5V9.5C7.12493 9.61318 7.15559 9.72426 7.21371 9.82137C7.27183 9.91848 7.35523 9.99799 7.45501 10.0514C7.55479 10.1048 7.6672 10.1302 7.78024 10.1247C7.89329 10.1192 8.00273 10.0831 8.09688 10.0203L11.8469 7.52032C11.9326 7.46326 12.0029 7.38591 12.0515 7.29514C12.1002 7.20436 12.1256 7.10298 12.1256 7C12.1256 6.89702 12.1002 6.79564 12.0515 6.70487C12.0029 6.61409 11.9326 6.53674 11.8469 6.47969ZM8.375 8.33203V5.67188L10.3734 7L8.375 8.33203ZM17.307 2.43125C17.2334 2.14324 17.0924 1.87686 16.8956 1.65409C16.6987 1.43132 16.4517 1.25854 16.175 1.15C13.4969 0.115628 9.23438 0.125003 9 0.125003C8.76562 0.125003 4.50312 0.115628 1.825 1.15C1.54825 1.25854 1.30128 1.43132 1.10445 1.65409C0.907621 1.87686 0.766583 2.14324 0.692969 2.43125C0.490625 3.21094 0.25 4.63594 0.25 7C0.25 9.36407 0.490625 10.7891 0.692969 11.5688C0.766472 11.8569 0.907461 12.1234 1.1043 12.3464C1.30113 12.5693 1.54816 12.7422 1.825 12.8508C4.39062 13.8406 8.40625 13.875 8.94844 13.875H9.05156C9.59375 13.875 13.6117 13.8406 16.175 12.8508C16.4518 12.7422 16.6989 12.5693 16.8957 12.3464C17.0925 12.1234 17.2335 11.8569 17.307 11.5688C17.5094 10.7875 17.75 9.36407 17.75 7C17.75 4.63594 17.5094 3.21094 17.307 2.43125ZM16.0969 11.2594C16.0731 11.3552 16.0269 11.4441 15.9621 11.5186C15.8973 11.5932 15.8158 11.6513 15.7242 11.6883C13.2516 12.643 9.04609 12.6258 9.00547 12.6258H9C8.95781 12.6258 4.75547 12.6414 2.28125 11.6883C2.18966 11.6513 2.10814 11.5932 2.04337 11.5186C1.97859 11.4441 1.9324 11.3552 1.90859 11.2594C1.71875 10.5461 1.5 9.23203 1.5 7C1.5 4.76797 1.71875 3.45391 1.90312 2.74453C1.92649 2.64811 1.97248 2.55864 2.03728 2.48351C2.10208 2.40839 2.18383 2.34977 2.27578 2.3125C4.66016 1.39141 8.65547 1.375 8.98281 1.375H9.00391C9.04609 1.375 13.2523 1.36094 15.7227 2.3125C15.8142 2.34947 15.8958 2.40761 15.9605 2.48216C16.0253 2.55671 16.0715 2.64556 16.0953 2.74141C16.2813 3.45391 16.5 4.76797 16.5 7C16.5 9.23203 16.2812 10.5461 16.0969 11.2555V11.2594Z" fill="white"/>
<path d="M11.8469 6.47969L0.752871 23.1207L0.759621 23.1252L0.766375 23.1297L11.8469 6.47969ZM8.09688 3.97969L-3.00313 20.6167L-2.99713 20.6207L8.09688 3.97969ZM7.125 4.5L27.125 4.5L27.125 4.48701L7.125 4.5ZM7.125 9.5L27.125 9.513V9.5H7.125ZM8.09688 10.0203L-2.99713 -6.62069L-3.00313 -6.61669L8.09688 10.0203ZM11.8469 7.52032L0.766375 -9.12968L0.759621 -9.12519L0.752871 -9.12069L11.8469 7.52032ZM8.375 8.33203H-11.625V45.6983L19.4675 24.974L8.375 8.33203ZM8.375 5.67188L19.4449 -10.9851L-11.625 -31.6337L-11.625 5.67188H8.375ZM10.3734 7L21.4659 23.642L46.4705 6.97555L21.4434 -9.65701L10.3734 7ZM17.307 2.43125L-2.07004 7.38392L-2.06093 7.41958L-2.05168 7.45521L17.307 2.43125ZM16.175 1.15L23.4771 -17.4693L23.429 -17.4882L23.3808 -17.5068L16.175 1.15ZM1.825 1.15L-5.38083 -17.5068L-5.429 -17.4882L-5.47708 -17.4693L1.825 1.15ZM0.692969 2.43125L20.0517 7.45521L20.0609 7.41958L20.07 7.38392L0.692969 2.43125ZM0.692969 11.5688L20.0724 6.62534L20.0621 6.58505L20.0517 6.5448L0.692969 11.5688ZM1.825 12.8508L-5.47944 31.4692L-5.42678 31.4899L-5.374 31.5102L1.825 12.8508ZM16.175 12.8508L23.3797 31.508L23.4296 31.4887L23.4794 31.4692L16.175 12.8508ZM17.307 11.5688L-2.05413 6.55421L-2.06333 6.58976L-2.07241 6.62534L17.307 11.5688ZM16.0969 11.2594L35.507 16.0809L36.0969 13.7062V11.2594H16.0969ZM15.7242 11.6883L22.9279 30.3459L23.069 30.2914L23.2093 30.2348L15.7242 11.6883ZM2.28125 11.6883L-5.20388 30.2348L-5.0565 30.2943L-4.9082 30.3514L2.28125 11.6883ZM1.90859 11.2594L21.3187 6.43787L21.2786 6.27626L21.2357 6.11535L1.90859 11.2594ZM1.90312 2.74453L21.26 7.77561L21.3016 7.61565L21.3405 7.45502L1.90312 2.74453ZM2.27578 2.3125L-4.93124 -16.3438L-5.08441 -16.2847L-5.23659 -16.223L2.27578 2.3125ZM15.7227 2.3125L23.2078 -16.234L23.0602 -16.2936L22.9117 -16.3508L15.7227 2.3125ZM16.0953 2.74141L-3.31482 7.56291L-3.28637 7.67742L-3.25658 7.79157L16.0953 2.74141ZM16.0969 11.2555L-3.25999 6.22439L-3.90313 8.69882V11.2555H16.0969ZM22.9409 -10.1613L19.1909 -12.6613L-2.99713 20.6207L0.752871 23.1207L22.9409 -10.1613ZM19.1969 -12.6573C16.09 -14.7302 12.4786 -15.9205 8.74808 -16.1012L6.81241 23.8519C3.30803 23.6821 -0.0845238 22.564 -3.00313 20.6167L19.1969 -12.6573ZM8.74808 -16.1012C5.01759 -16.282 1.30801 -15.4464 -1.9847 -13.6835L16.8947 21.5807C13.8016 23.2367 10.3168 24.0217 6.81241 23.8519L8.74808 -16.1012ZM-1.9847 -13.6835C-5.27739 -11.9207 -8.02963 -9.2969 -9.94763 -6.09212L24.375 14.4494C22.5733 17.4599 19.9879 19.9247 16.8947 21.5807L-1.9847 -13.6835ZM-9.94763 -6.09212C-11.8657 -2.88731 -12.8774 0.77814 -12.875 4.513L27.125 4.48701C27.1273 7.99551 26.1768 11.4388 24.375 14.4494L-9.94763 -6.09212ZM-12.875 4.5V9.5H27.125V4.5H-12.875ZM-12.875 9.48701C-12.8774 13.2219 -11.8656 16.8873 -9.94763 20.0921L24.375 -0.449383C26.1768 2.56117 27.1273 6.00448 27.125 9.513L-12.875 9.48701ZM-9.94763 20.0921C-8.02963 23.2969 -5.27739 25.9207 -1.9847 27.6835L16.8947 -7.58071C19.9879 -5.92474 22.5733 -3.45994 24.375 -0.449383L-9.94763 20.0921ZM-1.9847 27.6835C1.30801 29.4464 5.01759 30.282 8.74808 30.1012L6.81241 -9.85189C10.3168 -10.0217 13.8016 -9.2367 16.8947 -7.58071L-1.9847 27.6835ZM8.74808 30.1012C12.4785 29.9205 16.0899 28.7302 19.1969 26.6573L-3.00313 -6.61669C-0.0844657 -8.56398 3.3081 -9.68211 6.81241 -9.85189L8.74808 30.1012ZM19.1909 26.6613L22.9409 24.1613L0.752871 -9.12069L-2.99713 -6.62069L19.1909 26.6613ZM22.9274 24.1703C25.7565 22.2875 28.0765 19.7349 29.6812 16.7394L-5.57813 -2.14917C-4.07069 -4.9631 -1.89129 -7.36102 0.766375 -9.12968L22.9274 24.1703ZM29.6812 16.7394C31.2859 13.7439 32.1256 10.3983 32.1256 7H-7.87439C-7.87439 3.80767 -7.08559 0.664808 -5.57813 -2.14917L29.6812 16.7394ZM32.1256 7C32.1256 3.60172 31.2859 0.256086 29.6812 -2.73944L-5.57813 16.1492C-7.08559 13.3352 -7.87439 10.1923 -7.87439 7H32.1256ZM29.6812 -2.73944C28.0765 -5.73492 25.7565 -8.28754 22.9274 -10.1703L0.766375 23.1297C-1.89129 21.361 -4.07069 18.9631 -5.57813 16.1492L29.6812 -2.73944ZM28.375 8.33203V5.67188H-11.625V8.33203H28.375ZM-2.69495 22.3289L-0.696511 23.657L21.4434 -9.65701L19.4449 -10.9851L-2.69495 22.3289ZM-0.719066 -9.642L-2.7175 -8.30997L19.4675 24.974L21.4659 23.642L-0.719066 -9.642ZM36.6841 -2.52142C35.8253 -5.88156 34.1798 -8.98932 31.8835 -11.5883L1.9076 14.8965C0.00494385 12.743 -1.35844 10.168 -2.07004 7.38392L36.6841 -2.52142ZM31.8835 -11.5883C29.5872 -14.1873 26.7058 -16.2031 23.4771 -17.4693L8.87292 19.7693C6.19769 18.7202 3.81026 17.05 1.9076 14.8965L31.8835 -11.5883ZM23.3808 -17.5068C21.1647 -18.3627 19.0975 -18.8343 17.6027 -19.1115C16.0364 -19.4018 14.591 -19.5698 13.4401 -19.672C12.2696 -19.7759 11.2457 -19.8255 10.4873 -19.8499C10.1023 -19.8623 9.77211 -19.8687 9.51035 -19.8719C9.37901 -19.8735 9.2655 -19.8743 9.17196 -19.8747C9.12521 -19.8749 9.08492 -19.875 9.05202 -19.875C9.02501 -19.875 8.98943 -19.875 9 -19.875V20.125C9.02583 20.125 9.01214 20.125 9.0076 20.125C9.00355 20.125 9.00827 20.125 9.02114 20.1251C9.04781 20.1255 9.11001 20.1265 9.1994 20.1293C9.28942 20.1322 9.40053 20.1368 9.52496 20.1439C9.65006 20.1511 9.77782 20.1602 9.9021 20.1712C10.0275 20.1824 10.1324 20.194 10.2137 20.2045C10.2972 20.2154 10.3286 20.2216 10.3114 20.2184C10.2983 20.216 10.1867 20.1952 9.99353 20.1441C9.89345 20.1177 9.75817 20.0795 9.59249 20.0268C9.42752 19.9744 9.21707 19.9025 8.96917 19.8068L23.3808 -17.5068ZM9 -19.875C9.01057 -19.875 8.97499 -19.875 8.94798 -19.875C8.91508 -19.875 8.87479 -19.8749 8.82804 -19.8747C8.7345 -19.8743 8.62099 -19.8735 8.48965 -19.8719C8.22789 -19.8687 7.8977 -19.8623 7.51268 -19.8499C6.75428 -19.8255 5.73039 -19.7759 4.55991 -19.672C3.40899 -19.5698 1.96359 -19.4018 0.397348 -19.1115C-1.09748 -18.8343 -3.16474 -18.3627 -5.38083 -17.5068L9.03083 19.8068C8.78293 19.9025 8.57248 19.9744 8.40751 20.0268C8.24183 20.0795 8.10655 20.1177 8.00647 20.1441C7.81331 20.1952 7.70168 20.216 7.68859 20.2184C7.67138 20.2216 7.70284 20.2154 7.78628 20.2045C7.8676 20.194 7.97247 20.1824 8.0979 20.1712C8.22218 20.1602 8.34994 20.1511 8.47504 20.1439C8.59947 20.1368 8.71058 20.1322 8.8006 20.1293C8.88999 20.1265 8.95219 20.1255 8.97886 20.1251C8.99173 20.125 8.99645 20.125 8.9924 20.125C8.98786 20.125 8.97417 20.125 9 20.125V-19.875ZM-5.47708 -17.4693C-8.7058 -16.2031 -11.5872 -14.1873 -13.8835 -11.5883L16.0924 14.8965C14.1897 17.05 11.8023 18.7202 9.12708 19.7693L-5.47708 -17.4693ZM-13.8835 -11.5883C-16.1798 -8.9893 -17.8253 -5.88154 -18.6841 -2.52142L20.07 7.38392C19.3584 10.168 17.9951 12.743 16.0924 14.8965L-13.8835 -11.5883ZM-18.6657 -2.5927C-19.3796 0.158026 -19.75 3.31996 -19.75 7H20.25C20.25 6.49162 20.2761 6.3059 20.2668 6.38782C20.2575 6.46959 20.2094 6.84731 20.0517 7.45521L-18.6657 -2.5927ZM-19.75 7C-19.75 10.68 -19.3796 13.842 -18.6657 16.5927L20.0517 6.5448C20.2094 7.15269 20.2575 7.53041 20.2668 7.61219C20.2761 7.69411 20.25 7.50838 20.25 7H-19.75ZM-18.6865 16.5122C-17.8289 19.8739 -16.1841 22.9835 -13.8877 25.5842L16.0963 -0.891513C17.999 1.26334 19.3619 3.83986 20.0724 6.62534L-18.6865 16.5122ZM-13.8877 25.5842C-11.5913 28.1849 -8.70922 30.2021 -5.47944 31.4692L9.12944 -5.76763C11.8055 -4.71773 14.1935 -3.04635 16.0963 -0.891513L-13.8877 25.5842ZM-5.374 31.5102C-1.4807 33.0123 2.36722 33.4651 4.25335 33.6444C6.5012 33.858 8.32359 33.875 8.94844 33.875V-6.125C9.01768 -6.125 8.92192 -6.12401 8.7254 -6.13147C8.62918 -6.13512 8.51699 -6.14048 8.39553 -6.14817C8.27346 -6.15589 8.15248 -6.1653 8.03767 -6.17621C7.9218 -6.18722 7.82831 -6.19824 7.7593 -6.20763C7.68837 -6.21728 7.66849 -6.22179 7.69597 -6.21654C7.71979 -6.21199 7.83667 -6.18924 8.03065 -6.13717C8.13083 -6.11028 8.26363 -6.07234 8.42472 -6.02072C8.58521 -5.96929 8.78732 -5.89996 9.024 -5.80865L-5.374 31.5102ZM8.94844 33.875H9.05156V-6.125H8.94844V33.875ZM9.05156 33.875C9.67614 33.875 11.499 33.858 13.7471 33.6444C15.6318 33.4653 19.4836 33.0125 23.3797 31.508L8.97028 -5.80644C9.20791 -5.89821 9.41088 -5.96788 9.57204 -6.01956C9.73381 -6.07143 9.8672 -6.10955 9.96785 -6.13658C10.1627 -6.18892 10.2803 -6.21182 10.3045 -6.21644C10.3323 -6.22176 10.3127 -6.21729 10.2419 -6.20765C10.173 -6.19828 10.0795 -6.18726 9.9636 -6.17624C9.84874 -6.16533 9.72768 -6.15592 9.60548 -6.14819C9.4839 -6.1405 9.37157 -6.13513 9.27522 -6.13148C9.07839 -6.12402 8.98239 -6.125 9.05156 -6.125V33.875ZM23.4794 31.4692C26.7092 30.2021 29.5913 28.1849 31.8877 25.5842L1.90375 -0.891513C3.80647 -3.04636 6.19446 -4.71773 8.87056 -5.76763L23.4794 31.4692ZM31.8877 25.5842C34.184 22.9836 35.8289 19.874 36.6865 16.5122L-2.07241 6.62534C-1.36187 3.83985 0.00102758 1.26333 1.90375 -0.891513L31.8877 25.5842ZM36.6682 16.5833C37.3786 13.8403 37.75 10.6849 37.75 7H-2.25C-2.25 7.50822 -2.27611 7.69335 -2.26672 7.61102C-2.25718 7.52739 -2.20937 7.15363 -2.05413 6.55421L36.6682 16.5833ZM37.75 7C37.75 3.31996 37.3796 0.158027 36.6657 -2.5927L-2.05168 7.45521C-2.20944 6.84731 -2.25746 6.46959 -2.26678 6.38782C-2.27613 6.3059 -2.25 6.49162 -2.25 7H37.75ZM-3.31325 6.43787C-2.57518 3.46658 -1.14345 0.71241 0.864666 -1.59882L31.0595 24.6361C33.1972 22.1757 34.7213 19.2439 35.507 16.0809L-3.31325 6.43787ZM0.864666 -1.59882C2.87277 -3.91004 5.39998 -5.7124 8.23909 -6.85822L23.2093 30.2348C26.2316 29.015 28.9219 27.0964 31.0595 24.6361L0.864666 -1.59882ZM8.52055 -6.96935C8.81109 -7.08152 9.05813 -7.165 9.25098 -7.22555C9.44489 -7.28643 9.60425 -7.33046 9.7229 -7.36112C9.95198 -7.42033 10.0915 -7.44573 10.1203 -7.45088C10.1544 -7.45697 10.1363 -7.45283 10.0617 -7.44358C9.98954 -7.43464 9.89261 -7.42437 9.77388 -7.41436C9.5278 -7.39363 9.28902 -7.38243 9.11826 -7.37725C9.03886 -7.37484 8.98929 -7.37419 8.97896 -7.37407C8.97424 -7.37402 8.97978 -7.3741 8.99672 -7.37416C9.00532 -7.37418 9.01596 -7.3742 9.02864 -7.3742C9.03503 -7.37419 9.04078 -7.37419 9.04532 -7.37418C9.04694 -7.37417 9.04895 -7.37417 9.04671 -7.37418C9.04635 -7.37418 9.04288 -7.37418 9.03876 -7.37419C9.03702 -7.37419 9.02301 -7.37422 9.00547 -7.37422V32.6258C8.94482 32.6258 9.04919 32.6259 9.12419 32.6256C9.2084 32.6254 9.31088 32.6247 9.42987 32.6234C9.66696 32.6207 9.97192 32.6153 10.3311 32.6044C11.0376 32.5829 12.0123 32.5388 13.1318 32.4444C14.2288 32.352 15.6314 32.1978 17.1536 31.9259C18.5826 31.6707 20.6746 31.2159 22.9279 30.3459L8.52055 -6.96935ZM9.00547 -7.37422H9V32.6258H9.00547V-7.37422ZM9 -7.37422C8.98454 -7.37422 8.97217 -7.3742 8.97062 -7.3742C8.96704 -7.37419 8.96395 -7.37418 8.96379 -7.37418C8.96217 -7.37418 8.96403 -7.37419 8.96596 -7.37419C8.97074 -7.37419 8.97659 -7.3742 8.98301 -7.3742C8.99575 -7.3742 9.0064 -7.37418 9.01496 -7.37415C9.03182 -7.37409 9.03726 -7.37401 9.03242 -7.37406C9.02185 -7.37419 8.97204 -7.37486 8.8924 -7.3773C8.72119 -7.38254 8.4818 -7.39383 8.2349 -7.41467C8.11574 -7.42473 8.01824 -7.43507 7.94542 -7.4441C7.87008 -7.45345 7.851 -7.45771 7.88391 -7.45183C7.91157 -7.4469 8.04946 -7.42183 8.27654 -7.36323C8.39418 -7.33287 8.55234 -7.28924 8.7449 -7.22889C8.93643 -7.16887 9.18189 -7.08609 9.4707 -6.97483L-4.9082 30.3514C-2.66029 31.2173 -0.573282 31.6708 0.853961 31.9256C2.37387 32.1969 3.77441 32.3511 4.87037 32.4436C5.98861 32.538 6.96235 32.5824 7.66827 32.604C8.02719 32.615 8.33194 32.6205 8.56893 32.6233C8.68786 32.6246 8.79033 32.6253 8.8746 32.6256C8.95506 32.6259 9.04692 32.6258 9 32.6258V-7.37422ZM9.76638 -6.85822C12.6055 -5.7124 15.1327 -3.91004 17.1408 -1.59882L-13.0541 24.6361C-10.9164 27.0964 -8.22616 29.015 -5.20388 30.2348L9.76638 -6.85822ZM17.1408 -1.59882C19.1488 0.712327 20.5806 3.46647 21.3187 6.43787L-17.5015 16.0809C-16.7158 19.244 -15.1917 22.1758 -13.0541 24.6361L17.1408 -1.59882ZM21.2357 6.11535C21.4306 6.84733 21.4923 7.3264 21.5076 7.46216C21.5235 7.60368 21.5 7.47121 21.5 7H-18.5C-18.5 10.4521 -18.1709 13.5769 -17.4186 16.4034L21.2357 6.11535ZM21.5 7C21.5 6.5303 21.5234 6.39098 21.5089 6.52061C21.4947 6.64825 21.4375 7.09275 21.26 7.77561L-17.4537 -2.28655C-18.1662 0.454791 -18.5 3.52588 -18.5 7H21.5ZM21.3405 7.45502C20.6161 10.4441 19.1906 13.2177 17.1817 15.5466L-13.1072 -10.5796C-15.2456 -8.10046 -16.7631 -5.14785 -17.5342 -1.96595L21.3405 7.45502ZM17.1817 15.5466C15.1729 17.8756 12.6385 19.6928 9.78815 20.848L-5.23659 -16.223C-8.27082 -14.9932 -10.9687 -13.0588 -13.1072 -10.5796L17.1817 15.5466ZM9.4828 20.9688C8.93863 21.1791 8.52612 21.2966 8.3053 21.3544C8.07421 21.415 7.92896 21.4425 7.88986 21.4496C7.84595 21.4577 7.85339 21.4551 7.91695 21.4469C7.97816 21.439 8.06529 21.4293 8.17626 21.4194C8.40664 21.3988 8.64096 21.3864 8.82749 21.3799C9.00538 21.3737 9.07896 21.375 8.98281 21.375V-18.625C8.51253 -18.625 6.78241 -18.615 4.62511 -18.4227C2.91399 -18.2702 -1.00553 -17.8603 -4.93124 -16.3438L9.4828 20.9688ZM8.98281 21.375H9.00391V-18.625H8.98281V21.375ZM9.00391 21.375C9.01775 21.375 9.02887 21.375 9.03003 21.375C9.03135 21.375 9.03324 21.375 9.03397 21.375C9.03461 21.375 9.03532 21.375 9.03558 21.375C9.0365 21.375 9.03463 21.375 9.03235 21.375C9.02719 21.375 9.02114 21.375 9.01463 21.375C9.00172 21.375 8.99101 21.375 8.98249 21.3749C8.96568 21.3749 8.96038 21.3748 8.96543 21.3748C8.9764 21.375 9.02671 21.3757 9.10693 21.3781C9.27927 21.3835 9.52 21.3949 9.76824 21.4159C9.88807 21.426 9.98622 21.4364 10.0596 21.4455C10.1356 21.4549 10.1552 21.4593 10.1227 21.4535C10.0955 21.4486 9.95767 21.4236 9.73044 21.365C9.61272 21.3346 9.45429 21.2909 9.26133 21.2305C9.06942 21.1703 8.82328 21.0874 8.53358 20.9758L22.9117 -16.3508C20.6633 -17.2169 18.5758 -17.6699 17.1506 -17.9243C15.6319 -18.1953 14.2323 -18.3495 13.1372 -18.442C12.0198 -18.5365 11.0467 -18.581 10.3413 -18.6028C9.98267 -18.6139 9.67814 -18.6195 9.44135 -18.6223C9.32253 -18.6237 9.22012 -18.6245 9.13586 -18.6248C9.05149 -18.6251 8.96893 -18.625 9.00391 -18.625V21.375ZM8.23753 20.859C5.39836 19.7132 2.87116 17.9108 0.863104 15.5996L31.058 -10.6353C28.9204 -13.0956 26.2301 -15.0142 23.2078 -16.234L8.23753 20.859ZM0.863104 15.5996C-1.14492 13.2885 -2.57671 10.5343 -3.31482 7.56291L35.5054 -2.0801C34.7197 -5.24323 33.1956 -8.17506 31.058 -10.6353L0.863104 15.5996ZM-3.25658 7.79157C-3.43608 7.10376 -3.49405 6.65477 -3.50862 6.52449C-3.5234 6.39238 -3.5 6.53006 -3.5 7H36.5C36.5 3.52761 36.1666 0.448024 35.4472 -2.30876L-3.25658 7.79157ZM-3.5 7C-3.5 7.46971 -3.52338 7.60902 -3.5089 7.47939C-3.49465 7.35176 -3.43747 6.90725 -3.25999 6.22439L35.4537 16.2866C36.1662 13.5452 36.5 10.4741 36.5 7H-3.5ZM-3.90313 11.2555V11.2594H36.0969V11.2555H-3.90313Z" fill="white" mask="url(#path-1-inside-1_1047_4528)"/>
</svg>
