<svg width="20" height="20" viewBox="0 0 20 20" fill="none" xmlns="http://www.w3.org/2000/svg">
<path d="M5.40304 3.11523C3.44234 3.11523 2.53986 5.453 4.10726 6.62878C4.64158 5.28481 5.70526 4.31979 7.0997 3.9389C6.71825 3.44215 6.10196 3.11523 5.40304 3.11523Z" fill="#212121"/>
<path d="M1.35207 6.26332C1.43197 6.50484 1.5355 6.73655 1.65849 6.95608L1.01442 7.56312C0.841459 7.72605 0.841459 7.9905 1.01442 8.15377L2.14968 9.22351C2.23236 9.30139 2.34564 9.34522 2.46371 9.34522C2.58048 9.34522 2.693 9.30139 2.77711 9.22351L3.42046 8.61647C3.51701 8.6646 3.62403 8.6941 3.72402 8.73561C3.72402 8.7287 3.7233 8.72153 3.7233 8.71462C3.7233 8.21854 3.78379 7.75058 3.89148 7.31114C3.11471 6.84023 2.59641 6.0228 2.59641 5.08952C2.59641 3.63168 3.85533 2.44545 5.4026 2.44545C6.45031 2.44545 7.35489 2.99488 7.83777 3.7976C8.3533 3.73737 8.83756 3.73737 9.42047 3.84113C9.34548 3.62746 9.25726 3.41834 9.14675 3.22233L9.79082 2.61499C9.87484 2.53677 9.92137 2.4304 9.92137 2.31982C9.92137 2.20919 9.87484 2.10286 9.79082 2.02464L8.65618 0.955573C8.56939 0.873772 8.45611 0.833187 8.34287 0.833187C8.22959 0.833187 8.11636 0.873772 8.03019 0.955573L7.38406 1.56291C7.15066 1.44642 6.9054 1.3489 6.64837 1.27528V0.417226C6.64837 0.186867 6.45102 0 6.20576 0H4.60015C4.35628 0 4.15683 0.186867 4.15683 0.417226V1.27524C3.90047 1.34886 3.65517 1.44638 3.42105 1.56287L2.77711 0.956205C2.69023 0.874404 2.57699 0.833819 2.46371 0.833819C2.35048 0.833819 2.23657 0.874404 2.1504 0.955868L1.01442 2.02494C0.931743 2.10349 0.885214 2.20948 0.885214 2.32045C0.885214 2.43137 0.931743 2.53741 1.01442 2.61563L1.65849 3.22263C1.53546 3.44253 1.43197 3.6739 1.3535 3.91539H0.443323C0.198061 3.91539 0 4.10255 0 4.33325V5.84575C0 6.07578 0.198061 6.26332 0.443323 6.26332H1.35207Z" fill="#212121"/>
<path d="M15.2608 14.3568C15.9709 13.9899 16.4586 13.2877 16.4586 12.4728C16.4586 11.2837 15.431 10.3164 14.1686 10.3164C13.7247 10.3164 13.3133 10.4414 12.9618 10.6482C12.7513 11.4375 12.4199 12.1924 11.9863 12.8482C13.2153 13.0658 14.343 13.593 15.2608 14.3568Z" fill="#212121"/>
<path d="M19.9997 11.6567C19.9997 11.4077 19.785 11.2061 19.5216 11.2061H18.5393C18.4545 10.9453 18.342 10.6953 18.2085 10.458L18.904 9.80294C18.9944 9.71849 19.0443 9.60398 19.0443 9.48455C19.0443 9.36507 18.9943 9.25052 18.904 9.16581L17.6798 8.01229C17.5867 7.92421 17.4637 7.88004 17.3415 7.88004C17.2192 7.88004 17.0969 7.92421 17.0038 8.01229L16.307 8.66771C16.0554 8.54204 15.7907 8.43672 15.5128 8.35715V7.43175C15.5128 7.18306 15.2995 6.98145 15.0355 6.98145H13.3035C13.1874 6.98145 13.0853 7.02528 13.002 7.09009C13.1478 7.5914 13.2277 8.13497 13.2277 8.71483C13.2277 9.08296 13.1972 9.45673 13.1402 9.8284C13.4625 9.71647 13.8057 9.64617 14.1692 9.64617C15.8241 9.64617 17.1705 10.9142 17.1705 12.4728C17.1705 13.4689 16.6182 14.342 15.7894 14.8456C16.3924 15.4687 16.8718 16.2079 17.1838 17.0361C17.2352 17.0528 17.2887 17.0649 17.3422 17.0649C17.4644 17.0649 17.5868 17.0211 17.6805 16.933L18.9055 15.7795C18.9951 15.695 19.0444 15.5805 19.0444 15.4611C19.0444 15.3416 18.9951 15.2271 18.9055 15.1423L18.2086 14.4869C18.342 14.25 18.4545 13.9999 18.5394 13.7389H19.5217C19.6481 13.7389 19.7711 13.6917 19.8601 13.6066C19.9497 13.5225 20.0005 13.4077 20.0005 13.2882L19.9997 11.6567Z" fill="#212121"/>
<path d="M16.2088 17.4437C15.466 15.385 13.5033 13.9691 11.2376 13.7764C10.4789 14.5332 9.53958 15.0133 8.47581 15.0133C7.41285 15.0133 6.47279 14.5332 5.71481 13.7764C3.44777 13.9691 1.48501 15.385 0.742247 17.444L0.331673 18.5824C0.214232 18.91 0.270469 19.271 0.484503 19.552C0.698492 19.8332 1.04312 20.0001 1.40994 20.0001H15.541C15.9086 20.0001 16.2532 19.8332 16.4672 19.552C16.6805 19.271 16.7375 18.91 16.6193 18.5824L16.2088 17.4437Z" fill="#212121"/>
<path d="M4.79102 8.71492C4.79102 11.2684 6.44114 14.0083 8.4754 14.0083C10.5105 14.0083 12.1605 11.2684 12.1605 8.71492C12.1605 3.42189 4.79102 3.41139 4.79102 8.71492Z" fill="#212121"/>
</svg>
