<svg width="30" height="31" viewBox="0 0 30 31" fill="none" xmlns="http://www.w3.org/2000/svg">
<path d="M21.8169 16.7988C22.9415 16.7988 23.9311 16.1838 24.4409 15.2538L29.8089 5.51883C30.3637 4.52883 29.644 3.29883 28.5044 3.29883H6.31266L4.90318 0.298828H0V3.29883H2.99889L8.39688 14.6838L6.37263 18.3438C5.27804 20.3538 6.71751 22.7988 8.99666 22.7988H26.99V19.7988H8.99666L10.646 16.7988H21.8169ZM7.73713 6.29883H25.9554L21.8169 13.7988H11.2908L7.73713 6.29883ZM8.99666 24.2988C7.34727 24.2988 6.01277 25.6488 6.01277 27.2988C6.01277 28.9488 7.34727 30.2988 8.99666 30.2988C10.646 30.2988 11.9955 28.9488 11.9955 27.2988C11.9955 25.6488 10.646 24.2988 8.99666 24.2988ZM23.9911 24.2988C22.3417 24.2988 21.0072 25.6488 21.0072 27.2988C21.0072 28.9488 22.3417 30.2988 23.9911 30.2988C25.6405 30.2988 26.99 28.9488 26.99 27.2988C26.99 25.6488 25.6405 24.2988 23.9911 24.2988Z" fill="white"/>
</svg>
