<svg width="30" height="23" viewBox="0 0 30 23" fill="none" xmlns="http://www.w3.org/2000/svg">
<path d="M29.0287 9.03875C28.7971 8.71721 28.4924 8.45533 28.1396 8.27473C27.7869 8.09412 27.3963 7.99996 27 8H25.5V6C25.5 5.33696 25.2366 4.70107 24.7678 4.23223C24.2989 3.76339 23.663 3.5 23 3.5H14.5L11.1675 1C10.7343 0.676409 10.2083 0.501075 9.6675 0.5H3C2.33696 0.5 1.70107 0.763392 1.23223 1.23223C0.763392 1.70107 0.5 2.33696 0.5 3V21C0.5 21.3978 0.658035 21.7794 0.93934 22.0607C1.22064 22.342 1.60218 22.5 2 22.5H24.3875C24.698 22.5004 25.0011 22.4045 25.2547 22.2253C25.5084 22.0462 25.7002 21.7928 25.8037 21.5L29.365 11.3162L29.3725 11.295C29.4984 10.9186 29.5329 10.5177 29.4731 10.1254C29.4133 9.73302 29.261 9.36055 29.0287 9.03875ZM9.5 3.5L12.8337 6C13.267 6.32359 13.793 6.49893 14.3337 6.5H22.5V8H6.72125C6.19873 8.00004 5.68935 8.16381 5.2647 8.46828C4.84005 8.77275 4.52148 9.20263 4.35375 9.6975L3.5 12.1437V3.5H9.5ZM23.3237 19.5H4.11125L7.07625 11H26.2962L23.3237 19.5Z" fill="#2563EB"/>
</svg>
