<svg width="38" height="42" viewBox="0 0 38 42" fill="none" xmlns="http://www.w3.org/2000/svg">
<g filter="url(#filter0_d_3058_14609)">
<mask id="path-1-inside-1_3058_14609" fill="white">
<path d="M34 21.326V31.0234C34 31.7582 33.7366 32.4629 33.2678 32.9825C32.7989 33.5021 32.163 33.794 31.5 33.794H6.5C5.83696 33.794 5.20107 33.5021 4.73223 32.9825C4.26339 32.4629 4 31.7582 4 31.0234V21.326C4 20.9586 4.1317 20.6062 4.36612 20.3464C4.60054 20.0866 4.91848 19.9407 5.25 19.9407C5.58152 19.9407 5.89946 20.0866 6.13388 20.3464C6.3683 20.6062 6.5 20.9586 6.5 21.326V31.0234H31.5V21.326C31.5 20.9586 31.6317 20.6062 31.8661 20.3464C32.1005 20.0866 32.4185 19.9407 32.75 19.9407C33.0815 19.9407 33.3995 20.0866 33.6339 20.3464C33.8683 20.6062 34 20.9586 34 21.326ZM18.1156 22.3061C18.2317 22.4349 18.3696 22.5371 18.5213 22.6068C18.6731 22.6765 18.8357 22.7124 19 22.7124C19.1643 22.7124 19.3269 22.6765 19.4787 22.6068C19.6304 22.5371 19.7683 22.4349 19.8844 22.3061L26.1344 15.3794C26.2505 15.2507 26.3426 15.0979 26.4055 14.9297C26.4683 14.7616 26.5007 14.5813 26.5007 14.3993C26.5007 14.2173 26.4683 14.037 26.4055 13.8689C26.3426 13.7007 26.2505 13.5479 26.1344 13.4192C26.0182 13.2905 25.8804 13.1884 25.7286 13.1187C25.5769 13.049 25.4142 13.0132 25.25 13.0132C25.0858 13.0132 24.9231 13.049 24.7714 13.1187C24.6196 13.1884 24.4818 13.2905 24.3656 13.4192L20.25 17.9821V1.93124C20.25 1.56382 20.1183 1.21146 19.8839 0.951655C19.6495 0.691854 19.3315 0.545898 19 0.545898C18.6685 0.545898 18.3505 0.691854 18.1161 0.951655C17.8817 1.21146 17.75 1.56382 17.75 1.93124V17.9821L13.6344 13.4192C13.3998 13.1592 13.0817 13.0132 12.75 13.0132C12.4183 13.0132 12.1002 13.1592 11.8656 13.4192C11.6311 13.6791 11.4993 14.0317 11.4993 14.3993C11.4993 14.7669 11.6311 15.1195 11.8656 15.3794L18.1156 22.3061Z"/>
</mask>
<path d="M34 21.326V31.0234C34 31.7582 33.7366 32.4629 33.2678 32.9825C32.7989 33.5021 32.163 33.794 31.5 33.794H6.5C5.83696 33.794 5.20107 33.5021 4.73223 32.9825C4.26339 32.4629 4 31.7582 4 31.0234V21.326C4 20.9586 4.1317 20.6062 4.36612 20.3464C4.60054 20.0866 4.91848 19.9407 5.25 19.9407C5.58152 19.9407 5.89946 20.0866 6.13388 20.3464C6.3683 20.6062 6.5 20.9586 6.5 21.326V31.0234H31.5V21.326C31.5 20.9586 31.6317 20.6062 31.8661 20.3464C32.1005 20.0866 32.4185 19.9407 32.75 19.9407C33.0815 19.9407 33.3995 20.0866 33.6339 20.3464C33.8683 20.6062 34 20.9586 34 21.326ZM18.1156 22.3061C18.2317 22.4349 18.3696 22.5371 18.5213 22.6068C18.6731 22.6765 18.8357 22.7124 19 22.7124C19.1643 22.7124 19.3269 22.6765 19.4787 22.6068C19.6304 22.5371 19.7683 22.4349 19.8844 22.3061L26.1344 15.3794C26.2505 15.2507 26.3426 15.0979 26.4055 14.9297C26.4683 14.7616 26.5007 14.5813 26.5007 14.3993C26.5007 14.2173 26.4683 14.037 26.4055 13.8689C26.3426 13.7007 26.2505 13.5479 26.1344 13.4192C26.0182 13.2905 25.8804 13.1884 25.7286 13.1187C25.5769 13.049 25.4142 13.0132 25.25 13.0132C25.0858 13.0132 24.9231 13.049 24.7714 13.1187C24.6196 13.1884 24.4818 13.2905 24.3656 13.4192L20.25 17.9821V1.93124C20.25 1.56382 20.1183 1.21146 19.8839 0.951655C19.6495 0.691854 19.3315 0.545898 19 0.545898C18.6685 0.545898 18.3505 0.691854 18.1161 0.951655C17.8817 1.21146 17.75 1.56382 17.75 1.93124V17.9821L13.6344 13.4192C13.3998 13.1592 13.0817 13.0132 12.75 13.0132C12.4183 13.0132 12.1002 13.1592 11.8656 13.4192C11.6311 13.6791 11.4993 14.0317 11.4993 14.3993C11.4993 14.7669 11.6311 15.1195 11.8656 15.3794L18.1156 22.3061Z" fill="#2563EB"/>
<path d="M33.2678 32.9825L30.298 30.3029L33.2678 32.9825ZM4.73223 32.9825L7.702 30.3029L4.73223 32.9825ZM4 31.0234L0 31.0234L4 31.0234ZM6.5 21.326H2.5H6.5ZM6.5 31.0234H2.5V35.0234H6.5V31.0234ZM31.5 31.0234V35.0234H35.5V31.0234H31.5ZM18.1156 22.3061L21.0869 19.6281L21.0854 19.6265L18.1156 22.3061ZM19.8844 22.3061L16.9146 19.6265L16.9131 19.6281L19.8844 22.3061ZM26.1344 15.3794L23.1646 12.6998L26.1344 15.3794ZM25.25 13.0132L25.25 17.0132L25.25 13.0132ZM24.3656 13.4192L21.3959 10.7395L21.3953 10.7401L24.3656 13.4192ZM20.25 17.9821H16.25V28.3891L23.2203 20.6612L20.25 17.9821ZM19 0.545898L19 -3.4541L19 0.545898ZM17.75 17.9821L14.7797 20.6612L21.75 28.3891V17.9821H17.75ZM13.6344 13.4192L16.6047 10.7401L16.6041 10.7395L13.6344 13.4192ZM12.75 13.0132L12.75 9.01318L12.75 13.0132ZM11.4993 14.3993L7.49931 14.3993L11.4993 14.3993ZM30 21.326V31.0234H38V21.326H30ZM30 31.0234C30 30.8225 30.0682 30.5575 30.298 30.3029L36.2375 35.6622C37.405 34.3683 38 32.6939 38 31.0234H30ZM30.298 30.3029C30.54 30.0347 30.9617 29.794 31.5 29.794V37.794C33.3644 37.794 35.0578 36.9696 36.2375 35.6622L30.298 30.3029ZM31.5 29.794H6.5V37.794H31.5V29.794ZM6.5 29.794C7.03828 29.794 7.45998 30.0347 7.702 30.3029L1.76246 35.6622C2.94217 36.9696 4.63564 37.794 6.5 37.794V29.794ZM7.702 30.3029C7.93176 30.5575 8 30.8225 8 31.0234L0 31.0234C0 32.6939 0.595028 34.3683 1.76246 35.6622L7.702 30.3029ZM8 31.0234V21.326H0V31.0234H8ZM8 21.326C8 21.8943 7.80006 22.5116 7.33589 23.026L1.39635 17.6668C0.463332 18.7008 0 20.0229 0 21.326H8ZM7.33589 23.026C6.85944 23.5541 6.11979 23.9407 5.25 23.9407V15.9407C3.71717 15.9407 2.34164 16.6191 1.39635 17.6668L7.33589 23.026ZM5.25 23.9407C4.38021 23.9407 3.64056 23.5541 3.16411 23.026L9.10365 17.6668C8.15836 16.6191 6.78283 15.9407 5.25 15.9407V23.9407ZM3.16411 23.026C2.69994 22.5116 2.5 21.8943 2.5 21.326L10.5 21.326C10.5 20.0229 10.0367 18.7008 9.10365 17.6668L3.16411 23.026ZM2.5 21.326V31.0234H10.5V21.326H2.5ZM6.5 35.0234H31.5V27.0234H6.5V35.0234ZM35.5 31.0234V21.326H27.5V31.0234H35.5ZM35.5 21.326C35.5 21.8943 35.3001 22.5116 34.8359 23.026L28.8963 17.6668C27.9633 18.7008 27.5 20.0229 27.5 21.326H35.5ZM34.8359 23.026C34.3594 23.5541 33.6198 23.9407 32.75 23.9407V15.9407C31.2172 15.9407 29.8416 16.6191 28.8963 17.6668L34.8359 23.026ZM32.75 23.9407C31.8802 23.9407 31.1406 23.5541 30.6641 23.026L36.6037 17.6668C35.6584 16.6191 34.2828 15.9407 32.75 15.9407V23.9407ZM30.6641 23.026C30.1999 22.5116 30 21.8943 30 21.326H38C38 20.0229 37.5367 18.7008 36.6037 17.6668L30.6641 23.026ZM15.1444 24.9841C15.6104 25.5012 16.1863 25.936 16.8514 26.2416L20.1912 18.9721C20.5528 19.1382 20.853 19.3687 21.0869 19.6281L15.1444 24.9841ZM16.8514 26.2416C17.5181 26.5478 18.2495 26.7124 19 26.7124V18.7124C19.4219 18.7124 19.8281 18.8052 20.1912 18.9721L16.8514 26.2416ZM19 26.7124C19.7505 26.7124 20.4819 26.5478 21.1486 26.2416L17.8088 18.9721C18.1719 18.8052 18.5781 18.7124 19 18.7124V26.7124ZM21.1486 26.2416C21.8137 25.936 22.3896 25.5012 22.8556 24.9841L16.9131 19.6281C17.147 19.3687 17.4472 19.1382 17.8088 18.9721L21.1486 26.2416ZM22.8541 24.9858L29.1041 18.0591L23.1646 12.6998L16.9146 19.6265L22.8541 24.9858ZM29.1041 18.0591C29.5695 17.5433 29.9197 16.9527 30.1523 16.3301L22.6586 13.5294C22.7656 13.2431 22.9315 12.9581 23.1646 12.6998L29.1041 18.0591ZM30.1523 16.3301C30.385 15.7077 30.5007 15.0527 30.5007 14.3993H22.5007C22.5007 14.1099 22.5517 13.8154 22.6586 13.5294L30.1523 16.3301ZM30.5007 14.3993C30.5007 13.7459 30.385 13.0908 30.1523 12.4685L22.6586 15.2692C22.5517 14.9832 22.5007 14.6887 22.5007 14.3993H30.5007ZM30.1523 12.4685C29.9197 11.8459 29.5695 11.2553 29.1041 10.7395L23.1646 16.0988C22.9315 15.8405 22.7656 15.5555 22.6586 15.2692L30.1523 12.4685ZM29.1041 10.7395C28.6381 10.223 28.0622 9.78863 27.3974 9.48344L24.0598 16.754C23.6985 16.5881 23.3984 16.3579 23.1646 16.0988L29.1041 10.7395ZM27.3974 9.48344C26.7311 9.17756 26 9.01318 25.25 9.01318L25.25 17.0132C24.8284 17.0132 24.4226 16.9205 24.0598 16.754L27.3974 9.48344ZM25.25 9.01318C24.5 9.01318 23.7689 9.17756 23.1026 9.48344L26.4402 16.754C26.0774 16.9205 25.6716 17.0132 25.25 17.0132L25.25 9.01318ZM23.1026 9.48344C22.4378 9.78863 21.8619 10.223 21.3959 10.7395L27.3354 16.0988C27.1016 16.3579 26.8015 16.5881 26.4402 16.754L23.1026 9.48344ZM21.3953 10.7401L17.2797 15.3031L23.2203 20.6612L27.3359 16.0982L21.3953 10.7401ZM24.25 17.9821V1.93124H16.25V17.9821H24.25ZM24.25 1.93124C24.25 0.628109 23.7867 -0.693946 22.8537 -1.72798L16.9141 3.6313C16.4499 3.11686 16.25 2.49954 16.25 1.93124H24.25ZM22.8537 -1.72798C21.9084 -2.77562 20.5328 -3.4541 19 -3.4541L19 4.5459C18.1302 4.5459 17.3906 4.15933 16.9141 3.6313L22.8537 -1.72798ZM19 -3.4541C17.4672 -3.4541 16.0916 -2.77561 15.1463 -1.72798L21.0859 3.6313C20.6094 4.15932 19.8698 4.5459 19 4.5459L19 -3.4541ZM15.1463 -1.72798C14.2133 -0.693952 13.75 0.6281 13.75 1.93124H21.75C21.75 2.49955 21.5501 3.11687 21.0859 3.6313L15.1463 -1.72798ZM13.75 1.93124V17.9821H21.75V1.93124H13.75ZM20.7203 15.3031L16.6047 10.7401L10.6641 16.0982L14.7797 20.6612L20.7203 15.3031ZM16.6041 10.7395C15.6587 9.69174 14.283 9.01318 12.75 9.01318L12.75 17.0132C11.8804 17.0132 11.1409 16.6267 10.6646 16.0988L16.6041 10.7395ZM12.75 9.01318C11.217 9.01318 9.84128 9.69174 8.89586 10.7395L14.8354 16.0988C14.3591 16.6267 13.6196 17.0132 12.75 17.0132L12.75 9.01318ZM8.89586 10.7395C7.96271 11.7737 7.49931 13.096 7.49931 14.3993L15.4993 14.3993C15.4993 14.9674 15.2994 15.5845 14.8354 16.0988L8.89586 10.7395ZM7.49931 14.3993C7.49931 15.7026 7.96271 17.0249 8.89586 18.0591L14.8354 12.6998C15.2994 13.2141 15.4993 13.8312 15.4993 14.3993L7.49931 14.3993ZM8.89586 18.0591L15.1459 24.9858L21.0854 19.6265L14.8354 12.6998L8.89586 18.0591Z" fill="#2563EB" mask="url(#path-1-inside-1_3058_14609)"/>
</g>
<defs>
<filter id="filter0_d_3058_14609" x="0" y="0.545898" width="38" height="41.2482" filterUnits="userSpaceOnUse" color-interpolation-filters="sRGB">
<feFlood flood-opacity="0" result="BackgroundImageFix"/>
<feColorMatrix in="SourceAlpha" type="matrix" values="0 0 0 0 0 0 0 0 0 0 0 0 0 0 0 0 0 0 127 0" result="hardAlpha"/>
<feOffset dy="4"/>
<feGaussianBlur stdDeviation="2"/>
<feComposite in2="hardAlpha" operator="out"/>
<feColorMatrix type="matrix" values="0 0 0 0 0 0 0 0 0 0 0 0 0 0 0 0 0 0 0.25 0"/>
<feBlend mode="normal" in2="BackgroundImageFix" result="effect1_dropShadow_3058_14609"/>
<feBlend mode="normal" in="SourceGraphic" in2="effect1_dropShadow_3058_14609" result="shape"/>
</filter>
</defs>
</svg>
