<svg width="18" height="20" viewBox="0 0 18 20" fill="none" xmlns="http://www.w3.org/2000/svg">
<mask id="path-1-inside-1_1578_3030" fill="white">
<path d="M17.25 3.5H13.5V2.75C13.5 2.15326 13.2629 1.58097 12.841 1.15901C12.419 0.737053 11.8467 0.5 11.25 0.5H6.75C6.15326 0.5 5.58097 0.737053 5.15901 1.15901C4.73705 1.58097 4.5 2.15326 4.5 2.75V3.5H0.75C0.551088 3.5 0.360322 3.57902 0.21967 3.71967C0.0790178 3.86032 0 4.05109 0 4.25C0 4.44891 0.0790178 4.63968 0.21967 4.78033C0.360322 4.92098 0.551088 5 0.75 5H1.5V18.5C1.5 18.8978 1.65804 19.2794 1.93934 19.5607C2.22064 19.842 2.60218 20 3 20H15C15.3978 20 15.7794 19.842 16.0607 19.5607C16.342 19.2794 16.5 18.8978 16.5 18.5V5H17.25C17.4489 5 17.6397 4.92098 17.7803 4.78033C17.921 4.63968 18 4.44891 18 4.25C18 4.05109 17.921 3.86032 17.7803 3.71967C17.6397 3.57902 17.4489 3.5 17.25 3.5ZM6 2.75C6 2.55109 6.07902 2.36032 6.21967 2.21967C6.36032 2.07902 6.55109 2 6.75 2H11.25C11.4489 2 11.6397 2.07902 11.7803 2.21967C11.921 2.36032 12 2.55109 12 2.75V3.5H6V2.75ZM15 18.5H3V5H15V18.5ZM7.5 8.75V14.75C7.5 14.9489 7.42098 15.1397 7.28033 15.2803C7.13968 15.421 6.94891 15.5 6.75 15.5C6.55109 15.5 6.36032 15.421 6.21967 15.2803C6.07902 15.1397 6 14.9489 6 14.75V8.75C6 8.55109 6.07902 8.36032 6.21967 8.21967C6.36032 8.07902 6.55109 8 6.75 8C6.94891 8 7.13968 8.07902 7.28033 8.21967C7.42098 8.36032 7.5 8.55109 7.5 8.75ZM12 8.75V14.75C12 14.9489 11.921 15.1397 11.7803 15.2803C11.6397 15.421 11.4489 15.5 11.25 15.5C11.0511 15.5 10.8603 15.421 10.7197 15.2803C10.579 15.1397 10.5 14.9489 10.5 14.75V8.75C10.5 8.55109 10.579 8.36032 10.7197 8.21967C10.8603 8.07902 11.0511 8 11.25 8C11.4489 8 11.6397 8.07902 11.7803 8.21967C11.921 8.36032 12 8.55109 12 8.75Z"/>
</mask>
<path d="M17.25 3.5H13.5V2.75C13.5 2.15326 13.2629 1.58097 12.841 1.15901C12.419 0.737053 11.8467 0.5 11.25 0.5H6.75C6.15326 0.5 5.58097 0.737053 5.15901 1.15901C4.73705 1.58097 4.5 2.15326 4.5 2.75V3.5H0.75C0.551088 3.5 0.360322 3.57902 0.21967 3.71967C0.0790178 3.86032 0 4.05109 0 4.25C0 4.44891 0.0790178 4.63968 0.21967 4.78033C0.360322 4.92098 0.551088 5 0.75 5H1.5V18.5C1.5 18.8978 1.65804 19.2794 1.93934 19.5607C2.22064 19.842 2.60218 20 3 20H15C15.3978 20 15.7794 19.842 16.0607 19.5607C16.342 19.2794 16.5 18.8978 16.5 18.5V5H17.25C17.4489 5 17.6397 4.92098 17.7803 4.78033C17.921 4.63968 18 4.44891 18 4.25C18 4.05109 17.921 3.86032 17.7803 3.71967C17.6397 3.57902 17.4489 3.5 17.25 3.5ZM6 2.75C6 2.55109 6.07902 2.36032 6.21967 2.21967C6.36032 2.07902 6.55109 2 6.75 2H11.25C11.4489 2 11.6397 2.07902 11.7803 2.21967C11.921 2.36032 12 2.55109 12 2.75V3.5H6V2.75ZM15 18.5H3V5H15V18.5ZM7.5 8.75V14.75C7.5 14.9489 7.42098 15.1397 7.28033 15.2803C7.13968 15.421 6.94891 15.5 6.75 15.5C6.55109 15.5 6.36032 15.421 6.21967 15.2803C6.07902 15.1397 6 14.9489 6 14.75V8.75C6 8.55109 6.07902 8.36032 6.21967 8.21967C6.36032 8.07902 6.55109 8 6.75 8C6.94891 8 7.13968 8.07902 7.28033 8.21967C7.42098 8.36032 7.5 8.55109 7.5 8.75ZM12 8.75V14.75C12 14.9489 11.921 15.1397 11.7803 15.2803C11.6397 15.421 11.4489 15.5 11.25 15.5C11.0511 15.5 10.8603 15.421 10.7197 15.2803C10.579 15.1397 10.5 14.9489 10.5 14.75V8.75C10.5 8.55109 10.579 8.36032 10.7197 8.21967C10.8603 8.07902 11.0511 8 11.25 8C11.4489 8 11.6397 8.07902 11.7803 8.21967C11.921 8.36032 12 8.55109 12 8.75Z" fill="black"/>
<path d="M13.5 3.5H10.5V6.5H13.5V3.5ZM13.5 2.75L16.5 2.75L13.5 2.75ZM6.75 0.5L6.75 -2.5L6.75 0.5ZM4.5 3.5V6.5H7.5V3.5H4.5ZM0 4.25L-3 4.25L0 4.25ZM1.5 5H4.5V2H1.5V5ZM1.5 18.5L-1.5 18.5L1.5 18.5ZM16.5 5V2H13.5V5H16.5ZM6.75 2V5V2ZM12 3.5V6.5H15V3.5H12ZM6 3.5H3V6.5H6V3.5ZM15 18.5V21.5H18V18.5H15ZM3 18.5H0V21.5H3V18.5ZM3 5V2H0V5H3ZM15 5H18V2H15V5ZM17.25 0.5H13.5V6.5H17.25V0.5ZM16.5 3.5V2.75H10.5V3.5H16.5ZM16.5 2.75C16.5 1.35761 15.9469 0.0222561 14.9623 -0.962311L10.7197 3.28033C10.579 3.13968 10.5 2.94891 10.5 2.75L16.5 2.75ZM14.9623 -0.962311C13.9777 -1.94688 12.6424 -2.5 11.25 -2.5L11.25 3.5C11.0511 3.5 10.8603 3.42098 10.7197 3.28033L14.9623 -0.962311ZM11.25 -2.5H6.75V3.5H11.25V-2.5ZM6.75 -2.5C5.35761 -2.5 4.02226 -1.94688 3.03769 -0.962311L7.28033 3.28033C7.13968 3.42098 6.94891 3.5 6.75 3.5L6.75 -2.5ZM3.03769 -0.962311C2.05312 0.0222561 1.5 1.35761 1.5 2.75H7.5C7.5 2.94891 7.42098 3.13968 7.28033 3.28033L3.03769 -0.962311ZM1.5 2.75V3.5H7.5V2.75H1.5ZM4.5 0.5H0.75V6.5H4.5V0.5ZM0.75 0.5C-0.244564 0.5 -1.19839 0.89509 -1.90165 1.59835L2.34099 5.84099C1.91904 6.26295 1.34674 6.5 0.75 6.5V0.5ZM-1.90165 1.59835C-2.60491 2.30161 -3 3.25544 -3 4.25L3 4.25C3 4.84674 2.76295 5.41904 2.34099 5.84099L-1.90165 1.59835ZM-3 4.25C-3 5.24456 -2.60491 6.19839 -1.90165 6.90165L2.34099 2.65901C2.76295 3.08096 3 3.65326 3 4.25L-3 4.25ZM-1.90165 6.90165C-1.19839 7.60491 -0.244564 8 0.75 8V2C1.34674 2 1.91904 2.23705 2.34099 2.65901L-1.90165 6.90165ZM0.75 8H1.5V2H0.75V8ZM-1.5 5V18.5H4.5V5H-1.5ZM-1.5 18.5C-1.5 19.6935 -1.02589 20.8381 -0.181981 21.682L4.06066 17.4393C4.34196 17.7206 4.5 18.1022 4.5 18.5L-1.5 18.5ZM-0.181981 21.682C0.661932 22.5259 1.80652 23 3 23V17C3.39783 17 3.77936 17.158 4.06066 17.4393L-0.181981 21.682ZM3 23H15V17H3V23ZM15 23C16.1935 23 17.3381 22.5259 18.182 21.682L13.9393 17.4393C14.2206 17.158 14.6022 17 15 17V23ZM18.182 21.682C19.0259 20.8381 19.5 19.6935 19.5 18.5H13.5C13.5 18.1022 13.658 17.7206 13.9393 17.4393L18.182 21.682ZM19.5 18.5V5H13.5V18.5H19.5ZM16.5 8H17.25V2H16.5V8ZM17.25 8C18.2446 8 19.1984 7.60491 19.9017 6.90165L15.659 2.65901C16.081 2.23705 16.6533 2 17.25 2V8ZM19.9017 6.90165C20.6049 6.19839 21 5.24456 21 4.25H15C15 3.65327 15.237 3.08097 15.659 2.65901L19.9017 6.90165ZM21 4.25C21 3.25544 20.6049 2.30161 19.9017 1.59835L15.659 5.84099C15.237 5.41903 15 4.84673 15 4.25H21ZM19.9017 1.59835C19.1984 0.895088 18.2446 0.5 17.25 0.5V6.5C16.6533 6.5 16.081 6.26295 15.659 5.84099L19.9017 1.59835ZM9 2.75C9 3.34674 8.76295 3.91904 8.34099 4.34099L4.09835 0.0983497C3.39509 0.80161 3 1.75544 3 2.75H9ZM8.34099 4.34099C7.91904 4.76295 7.34674 5 6.75 5L6.75 -1C5.75544 -1 4.80161 -0.60491 4.09835 0.0983497L8.34099 4.34099ZM6.75 5H11.25V-1H6.75V5ZM11.25 5C10.6533 5 10.081 4.76295 9.65901 4.34099L13.9017 0.0983497C13.1984 -0.604912 12.2446 -1 11.25 -1V5ZM9.65901 4.34099C9.23705 3.91903 9 3.34673 9 2.75H15C15 1.75544 14.6049 0.801615 13.9017 0.0983497L9.65901 4.34099ZM9 2.75V3.5H15V2.75H9ZM12 0.5H6V6.5H12V0.5ZM9 3.5V2.75H3V3.5H9ZM15 15.5H3V21.5H15V15.5ZM6 18.5V5H0V18.5H6ZM3 8H15V2H3V8ZM12 5V18.5H18V5H12ZM4.5 8.75V14.75H10.5V8.75H4.5ZM4.5 14.75C4.5 14.1533 4.73705 13.581 5.15901 13.159L9.40165 17.4017C10.1049 16.6984 10.5 15.7446 10.5 14.75H4.5ZM5.15901 13.159C5.58097 12.737 6.15327 12.5 6.75 12.5V18.5C7.74456 18.5 8.69839 18.1049 9.40165 17.4017L5.15901 13.159ZM6.75 12.5C7.34673 12.5 7.91903 12.737 8.34099 13.159L4.09835 17.4017C4.80161 18.1049 5.75544 18.5 6.75 18.5V12.5ZM8.34099 13.159C8.76295 13.581 9 14.1533 9 14.75H3C3 15.7446 3.39509 16.6984 4.09835 17.4017L8.34099 13.159ZM9 14.75V8.75H3V14.75H9ZM9 8.75C9 9.34674 8.76295 9.91904 8.34099 10.341L4.09835 6.09835C3.39509 6.80161 3 7.75544 3 8.75H9ZM8.34099 10.341C7.91904 10.7629 7.34674 11 6.75 11V5C5.75544 5 4.80161 5.39509 4.09835 6.09835L8.34099 10.341ZM6.75 11C6.15326 11 5.58096 10.7629 5.15901 10.341L9.40165 6.09835C8.69839 5.39509 7.74456 5 6.75 5V11ZM5.15901 10.341C4.73705 9.91904 4.5 9.34674 4.5 8.75H10.5C10.5 7.75544 10.1049 6.80161 9.40165 6.09835L5.15901 10.341ZM9 8.75V14.75H15V8.75H9ZM9 14.75C9 14.1533 9.23705 13.581 9.65901 13.159L13.9017 17.4017C14.6049 16.6984 15 15.7446 15 14.75H9ZM9.65901 13.159C10.081 12.737 10.6533 12.5 11.25 12.5V18.5C12.2446 18.5 13.1984 18.1049 13.9017 17.4017L9.65901 13.159ZM11.25 12.5C11.8467 12.5 12.419 12.737 12.841 13.159L8.59835 17.4017C9.30162 18.1049 10.2554 18.5 11.25 18.5V12.5ZM12.841 13.159C13.263 13.581 13.5 14.1533 13.5 14.75H7.5C7.5 15.7446 7.89508 16.6984 8.59835 17.4017L12.841 13.159ZM13.5 14.75V8.75H7.5V14.75H13.5ZM13.5 8.75C13.5 9.34673 13.263 9.91903 12.841 10.341L8.59835 6.09835C7.89508 6.80161 7.5 7.75544 7.5 8.75H13.5ZM12.841 10.341C12.419 10.7629 11.8467 11 11.25 11V5C10.2554 5 9.30161 5.39509 8.59835 6.09835L12.841 10.341ZM11.25 11C10.6533 11 10.081 10.7629 9.65901 10.341L13.9017 6.09835C13.1984 5.39509 12.2446 5 11.25 5V11ZM9.65901 10.341C9.23705 9.91903 9 9.34673 9 8.75H15C15 7.75544 14.6049 6.80161 13.9017 6.09835L9.65901 10.341Z" fill="black" mask="url(#path-1-inside-1_1578_3030)"/>
</svg>
