<svg width="22" height="22" viewBox="0 0 22 22" fill="none" xmlns="http://www.w3.org/2000/svg">
<path fill-rule="evenodd" clip-rule="evenodd" d="M15.577 21.3691H6.753C3.312 21.3691 1 18.9541 1 15.3601V7.04611C1 3.45211 3.312 1.03711 6.753 1.03711H10.492C10.906 1.03711 11.242 1.37311 11.242 1.78711C11.242 2.20111 10.906 2.53711 10.492 2.53711H6.753C4.169 2.53711 2.5 4.30711 2.5 7.04611V15.3601C2.5 18.0991 4.169 19.8691 6.753 19.8691H15.577C18.161 19.8691 19.831 18.0991 19.831 15.3601V11.3321C19.831 10.9181 20.167 10.5821 20.581 10.5821C20.995 10.5821 21.331 10.9181 21.331 11.3321V15.3601C21.331 18.9541 19.018 21.3691 15.577 21.3691" fill="black"/>
<path d="M15.577 21.3691H6.753C3.312 21.3691 1 18.9541 1 15.3601V7.04611C1 3.45211 3.312 1.03711 6.753 1.03711H10.492C10.906 1.03711 11.242 1.37311 11.242 1.78711C11.242 2.20111 10.906 2.53711 10.492 2.53711H6.753C4.169 2.53711 2.5 4.30711 2.5 7.04611V15.3601C2.5 18.0991 4.169 19.8691 6.753 19.8691H15.577C18.161 19.8691 19.831 18.0991 19.831 15.3601V11.3321C19.831 10.9181 20.167 10.5821 20.581 10.5821C20.995 10.5821 21.331 10.9181 21.331 11.3321V15.3601C21.331 18.9541 19.018 21.3691 15.577 21.3691" stroke="black"/>
<path fill-rule="evenodd" clip-rule="evenodd" d="M7.86786 14.4285H10.8449C11.2249 14.4285 11.5809 14.2815 11.8499 14.0125L19.3589 6.50349C19.6669 6.19549 19.8369 5.78549 19.8369 5.34949C19.8369 4.91249 19.6669 4.50149 19.3589 4.19349L18.1419 2.97649C17.5049 2.34149 16.4689 2.34149 15.8309 2.97649L8.35786 10.4495C8.09886 10.7085 7.95186 11.0525 7.94286 11.4175L7.86786 14.4285ZM10.8449 15.9285H7.09886C6.89686 15.9285 6.70286 15.8465 6.56186 15.7015C6.42086 15.5575 6.34386 15.3625 6.34886 15.1595L6.44286 11.3805C6.46186 10.6285 6.76486 9.92149 7.29686 9.38849H7.29786L14.7709 1.91549C15.9929 0.695488 17.9799 0.695488 19.2019 1.91549L20.4189 3.13249C21.0119 3.72449 21.3379 4.51149 21.3369 5.34949C21.3369 6.18749 21.0109 6.97349 20.4189 7.56449L12.9099 15.0735C12.3589 15.6245 11.6249 15.9285 10.8449 15.9285V15.9285Z" fill="black"/>
<path d="M7.86786 14.4285L7.36802 14.416L7.35525 14.9285H7.86786V14.4285ZM11.8499 14.0125L11.4963 13.6589L11.4963 13.6589L11.8499 14.0125ZM19.3589 6.50349L19.7124 6.85704L19.7124 6.85704L19.3589 6.50349ZM19.3589 4.19349L19.7124 3.83993L19.7124 3.83993L19.3589 4.19349ZM18.1419 2.97649L18.4954 2.62293L18.4949 2.62238L18.1419 2.97649ZM15.8309 2.97649L15.4781 2.6221L15.4773 2.62293L15.8309 2.97649ZM8.35786 10.4495L8.71142 10.803L8.71142 10.803L8.35786 10.4495ZM7.94286 11.4175L8.44271 11.4299L8.44271 11.4298L7.94286 11.4175ZM6.56186 15.7015L6.92033 15.3529L6.91912 15.3517L6.56186 15.7015ZM6.34886 15.1595L5.84902 15.1471L5.84901 15.1472L6.34886 15.1595ZM6.44286 11.3805L5.94302 11.3679L5.94302 11.3681L6.44286 11.3805ZM7.29686 9.38849V8.88849H7.08948L6.94298 9.03527L7.29686 9.38849ZM7.29786 9.38849V9.88849H7.50497L7.65142 9.74204L7.29786 9.38849ZM14.7709 1.91549L14.4176 1.56165L14.4173 1.56193L14.7709 1.91549ZM19.2019 1.91549L19.5554 1.56193L19.5551 1.56165L19.2019 1.91549ZM20.4189 3.13249L20.0653 3.48604L20.0656 3.48634L20.4189 3.13249ZM21.3369 5.34949L20.8369 5.34889V5.34949H21.3369ZM20.4189 7.56449L20.0656 7.21064L20.0653 7.21094L20.4189 7.56449ZM12.9099 15.0735L12.5563 14.7199L12.5563 14.7199L12.9099 15.0735ZM7.86786 14.9285H10.8449V13.9285H7.86786V14.9285ZM10.8449 14.9285C11.3571 14.9285 11.8404 14.729 12.2034 14.366L11.4963 13.6589C11.3213 13.8339 11.0926 13.9285 10.8449 13.9285V14.9285ZM12.2034 14.366L19.7124 6.85704L19.0053 6.14994L11.4963 13.6589L12.2034 14.366ZM19.7124 6.85704C20.1141 6.45532 20.3369 5.91816 20.3369 5.34949H19.3369C19.3369 5.65281 19.2196 5.93566 19.0053 6.14994L19.7124 6.85704ZM20.3369 5.34949C20.3369 4.7803 20.1145 4.242 19.7124 3.83993L19.0053 4.54704C19.2192 4.76098 19.3369 5.04467 19.3369 5.34949H20.3369ZM19.7124 3.83993L18.4954 2.62293L17.7883 3.33004L19.0053 4.54704L19.7124 3.83993ZM18.4949 2.62238C17.6626 1.79271 16.3111 1.7931 15.4781 2.6221L16.1836 3.33087C16.6267 2.88987 17.3472 2.89027 17.7889 3.3306L18.4949 2.62238ZM15.4773 2.62293L8.00431 10.0959L8.71142 10.803L16.1844 3.33004L15.4773 2.62293ZM8.00431 10.0959C7.6544 10.4458 7.45517 10.9121 7.44301 11.4052L8.44271 11.4298C8.44855 11.1929 8.54333 10.9711 8.71142 10.803L8.00431 10.0959ZM7.44302 11.405L7.36802 14.416L8.36771 14.4409L8.44271 11.4299L7.44302 11.405ZM10.8449 15.4285H7.09886V16.4285H10.8449V15.4285ZM7.09886 15.4285C7.03207 15.4285 6.96731 15.4012 6.92033 15.3529L6.2034 16.0501C6.43842 16.2917 6.76166 16.4285 7.09886 16.4285V15.4285ZM6.91912 15.3517C6.87273 15.3043 6.84703 15.24 6.84871 15.1718L5.84901 15.1472C5.84069 15.485 5.969 15.8107 6.20461 16.0513L6.91912 15.3517ZM6.84871 15.1719L6.94271 11.3929L5.94302 11.3681L5.84902 15.1471L6.84871 15.1719ZM6.9427 11.3931C6.95847 10.7692 7.20916 10.1841 7.65075 9.74171L6.94298 9.03527C6.32056 9.65885 5.96526 10.4877 5.94302 11.3679L6.9427 11.3931ZM7.29686 9.88849H7.29786V8.88849H7.29686V9.88849ZM7.65142 9.74204L15.1244 2.26904L14.4173 1.56193L6.94431 9.03493L7.65142 9.74204ZM15.1241 2.26933C16.1509 1.24421 17.8218 1.24421 18.8486 2.26933L19.5551 1.56165C18.1379 0.146769 15.8348 0.146769 14.4176 1.56165L15.1241 2.26933ZM18.8483 2.26904L20.0653 3.48604L20.7724 2.77893L19.5554 1.56193L18.8483 2.26904ZM20.0656 3.48634C20.5646 3.98445 20.8377 4.64392 20.8369 5.34889L21.8369 5.35008C21.838 4.37906 21.4592 3.46453 20.7721 2.77864L20.0656 3.48634ZM20.8369 5.34949C20.8369 6.05484 20.5636 6.71351 20.0656 7.21064L20.7721 7.91834C21.4581 7.23347 21.8369 6.32013 21.8369 5.34949H20.8369ZM20.0653 7.21094L12.5563 14.7199L13.2634 15.427L20.7724 7.91804L20.0653 7.21094ZM12.5563 14.7199C12.0991 15.1771 11.4923 15.4285 10.8449 15.4285V16.4285C11.7574 16.4285 12.6186 16.0719 13.2634 15.427L12.5563 14.7199Z" fill="black"/>
<path fill-rule="evenodd" clip-rule="evenodd" d="M18.7308 8.91685C18.5388 8.91685 18.3468 8.84385 18.2008 8.69685L13.6348 4.13085C13.3418 3.83785 13.3418 3.36285 13.6348 3.06985C13.9278 2.77685 14.4018 2.77685 14.6948 3.06985L19.2608 7.63685C19.5538 7.92985 19.5538 8.40385 19.2608 8.69685C19.1148 8.84385 18.9228 8.91685 18.7308 8.91685" fill="black"/>
<path d="M18.7308 8.91685C18.5388 8.91685 18.3468 8.84385 18.2008 8.69685L13.6348 4.13085C13.3418 3.83785 13.3418 3.36285 13.6348 3.06985C13.9278 2.77685 14.4018 2.77685 14.6948 3.06985L19.2608 7.63685C19.5538 7.92985 19.5538 8.40385 19.2608 8.69685C19.1148 8.84385 18.9228 8.91685 18.7308 8.91685" stroke="black"/>
</svg>
